<?xml version="1.0" encoding="UTF-8"?>
<svg id="Layer_1" data-name="Layer 1" xmlns="http://www.w3.org/2000/svg" viewBox="0 0 200 200">
  <defs>
    <style>
      .cls-1, .cls-2 {
        stroke-width: 0px;
      }

      .cls-2 {
        fill: #fff;
      }
    </style>
  </defs>
  <rect class="cls-1" width="200" height="200"/>
  <g>
    <path class="cls-2" d="m36.71,117.15h6.17v.95h-2.44v6.44h-1.31v-6.44h-2.42v-.95Z"/>
    <path class="cls-2" d="m50.18,121.21h-3.47v3.33h-1.31v-7.39h1.31v3.11h3.47v-3.11h1.31v7.39h-1.31v-3.33Z"/>
    <path class="cls-2" d="m59.42,124.54h-4.61v-7.39h4.49v.95h-3.17v2.16h2.31v.95h-2.31v2.38h3.3v.95Z"/>
    <path class="cls-2" d="m73.84,122.03c0,1-.59,2.67-3.05,2.67-1.95,0-3.05-.95-3.05-2.67v-4.88h1.31v4.88c0,1.12.63,1.72,1.77,1.72,1.22,0,1.77-.81,1.77-1.72v-4.88h1.25v4.88Z"/>
    <path class="cls-2" d="m83.83,117.15v7.39h-1.17l-4.23-5.33v5.33h-1.25v-7.39h1.2l4.24,5.34v-5.34h1.22Z"/>
    <path class="cls-2" d="m87.24,124.54v-7.39h1.31v7.39h-1.31Z"/>
    <path class="cls-2" d="m94.28,124.6h-.64l-2.52-7.45h1.33l1.66,5.06,1.77-5.06h1.22l-2.81,7.45Z"/>
    <path class="cls-2" d="m104.29,124.54h-4.61v-7.39h4.48v.95h-3.17v2.16h2.31v.95h-2.31v2.38h3.3v.95Z"/>
    <path class="cls-2" d="m111.51,124.68l-2.05-3.41h-.83v3.26h-1.33v-7.39h2.27c1.83,0,2.53,1.09,2.53,1.87,0,1.08-.8,1.75-1.42,2l2.27,3.51-1.44.14Zm-2.33-4.36c1-.02,1.59-.53,1.59-1.16s-.55-1.08-1.58-1.08h-.58v2.24h.56Z"/>
    <path class="cls-2" d="m117.38,123.74c.7,0,1.28-.41,1.28-.97,0-.63-.75-.98-1.59-1.44-.74-.39-1.92-1.01-1.92-2.34,0-1.06.95-2,2.34-2,.98,0,1.64.23,2.04.44l-.36.84c-.39-.17-.87-.33-1.67-.33-.74,0-1.16.47-1.16.88,0,.64.74,1.05,1.53,1.48.69.37,2.08.95,2.08,2.3,0,1.45-1.69,2.09-2.58,2.09-1.25,0-2-.42-2.42-.62l.41-.86c.34.16,1.05.53,2.02.53Z"/>
    <path class="cls-2" d="m122.89,124.54v-7.39h1.31v7.39h-1.31Z"/>
    <path class="cls-2" d="m126.71,117.15h6.17v.95h-2.44v6.44h-1.31v-6.44h-2.42v-.95Z"/>
    <path class="cls-2" d="m141.12,117.15l-2.47,3.81v3.58h-1.31v-3.58l-2.53-3.81h1.39l1.87,2.91,1.77-2.91h1.28Z"/>
    <path class="cls-2" d="m155.97,120.84c0,2.39-1.75,3.86-3.88,3.86s-3.89-1.45-3.89-3.86c0-2.23,1.64-3.84,3.89-3.84,2.38,0,3.88,1.55,3.88,3.84Zm-6.33,0c0,1.75.99,2.91,2.45,2.91s2.44-1.16,2.44-2.91-.97-2.89-2.44-2.89-2.45,1.16-2.45,2.89Z"/>
    <path class="cls-2" d="m158.66,124.54v-7.39h4.23v.95h-2.92v2.16h2.06v.95h-2.06v3.33h-1.31Z"/>
    <g>
      <path class="cls-2" d="m50.95,131.3v15.36h-2.44l-8.8-11.07v11.07h-2.6v-15.36h2.5l8.8,11.1v-11.1h2.53Z"/>
      <path class="cls-2" d="m64.12,146.66h-9.58v-15.36h9.32v1.98h-6.59v4.48h4.81v1.98h-4.81v4.93h6.85v1.98Z"/>
      <path class="cls-2" d="m72.27,146.79h-1.4l-5.23-15.49h2.82l3.54,10.81,2.27-6.36-1.46-4.45h2.79l3.41,10.52,3.67-10.52h2.53l-5.81,15.49h-1.39l-2.7-8.05-3.05,8.05Z"/>
      <path class="cls-2" d="m99.57,145.65c-1.07.68-2.53,1.33-5.58,1.33-5.39,0-8.25-4.06-8.25-8.02s2.86-7.99,8.25-7.99c3.02,0,4.61.91,5.26,1.2l-.84,1.85c-.52-.23-1.88-1.04-4.32-1.04-3.34,0-5.36,2.5-5.36,5.97s2.11,6.01,5.62,6.01c2.44,0,3.67-.68,4.38-1.01l.84,1.69Z"/>
      <path class="cls-2" d="m103.22,146.66h-2.66l6.79-15.42h1.04l6.04,15.42h-2.89l-1.46-3.83h-5.26l-1.59,3.83Zm4.32-10.39l-1.91,4.58h3.7l-1.79-4.58Z"/>
      <path class="cls-2" d="m121.05,145c1.46,0,2.66-.84,2.66-2.01,0-1.3-1.56-2.04-3.31-2.99-1.53-.81-3.99-2.11-3.99-4.87,0-2.21,1.98-4.16,4.87-4.16,2.05,0,3.41.49,4.25.91l-.75,1.75c-.81-.36-1.82-.68-3.47-.68-1.53,0-2.4.97-2.4,1.82,0,1.33,1.53,2.18,3.18,3.08,1.43.78,4.32,1.98,4.32,4.77,0,3.02-3.51,4.35-5.36,4.35-2.6,0-4.16-.88-5.03-1.3l.85-1.79c.71.32,2.18,1.1,4.19,1.1Z"/>
      <path class="cls-2" d="m127.75,131.3h12.82v1.98h-5.06v13.38h-2.73v-13.38h-5.03v-1.98Z"/>
      <path class="cls-2" d="m145.6,144.68h5.88v1.98h-8.6v-15.36h2.73v13.38Z"/>
      <path class="cls-2" d="m163.16,146.66h-9.58v-15.36h9.32v1.98h-6.59v4.48h4.81v1.98h-4.81v4.93h6.85v1.98Z"/>
    </g>
    <g>
      <path class="cls-2" d="m68.01,160.81h-1.28l3.26-7.42h.5l2.91,7.42h-1.39l-.7-1.84h-2.53l-.76,1.84Zm2.08-5l-.92,2.2h1.78l-.86-2.2Z"/>
      <path class="cls-2" d="m81.81,158.29c0,1-.59,2.67-3.05,2.67-1.95,0-3.05-.95-3.05-2.67v-4.88h1.31v4.88c0,1.12.62,1.72,1.77,1.72,1.22,0,1.77-.81,1.77-1.72v-4.88h1.25v4.88Z"/>
      <path class="cls-2" d="m87,160.01c.7,0,1.28-.41,1.28-.97,0-.63-.75-.99-1.59-1.44-.74-.39-1.92-1.02-1.92-2.34,0-1.06.95-2,2.34-2,.98,0,1.64.23,2.05.44l-.36.84c-.39-.17-.88-.33-1.67-.33-.73,0-1.15.47-1.15.88,0,.64.73,1.05,1.53,1.48.69.37,2.08.96,2.08,2.3,0,1.45-1.69,2.09-2.58,2.09-1.25,0-2-.42-2.42-.63l.41-.86c.34.16,1.05.53,2.02.53Z"/>
      <path class="cls-2" d="m91.57,153.42h6.17v.95h-2.44v6.44h-1.31v-6.44h-2.42v-.95Z"/>
      <path class="cls-2" d="m104.45,160.95l-2.05-3.41h-.83v3.27h-1.33v-7.39h2.27c1.83,0,2.53,1.09,2.53,1.88,0,1.08-.8,1.75-1.42,2l2.26,3.52-1.44.14Zm-2.33-4.36c1-.02,1.6-.53,1.6-1.15,0-.66-.55-1.08-1.58-1.08h-.58v2.23h.56Z"/>
      <path class="cls-2" d="m108.8,160.81h-1.28l3.27-7.42h.5l2.91,7.42h-1.39l-.7-1.84h-2.53l-.77,1.84Zm2.08-5l-.92,2.2h1.78l-.86-2.2Z"/>
      <path class="cls-2" d="m117.94,159.86h2.83v.95h-4.14v-7.39h1.31v6.44Z"/>
      <path class="cls-2" d="m123.18,160.81v-7.39h1.31v7.39h-1.31Z"/>
      <path class="cls-2" d="m128.16,160.81h-1.28l3.27-7.42h.5l2.91,7.42h-1.39l-.7-1.84h-2.53l-.77,1.84Zm2.08-5l-.92,2.2h1.78l-.86-2.2Z"/>
    </g>
    <path class="cls-2" d="m95.07,40.52s.03.01.03.03-.01.02-.03.03c-9.72,3.4-12.81,15.23-12.81,15.23,0,.02,0,.03.02.04.02.01.05,0,.06-.01,17.6-23.04,33.98-15.59,33.98-15.59.03,0,.05.04.04.07,0,.03-.03.04-.05.04-.31-.03-5.16-.42-6.78,4.05l24.43,27.27c0,.79-.31,1.5-.8,2.12-.25-.37-1.3-.86-2-1.09-.96-.31-1.84-.46-1.84-1.17,0-.52.45-.65.69-.65.21,0,.33.1.33.1,0,0,.01,0,.02,0,0,0,0-.01,0-.01,0,0-.17-.36-.65-.37-.47-.01-1.23.33-1.28,1.23-.03.74.32,1.15.86,1.52.53.37,1.58.84,1.58,1.62s-.6.96-.73,1.02c-.26.13-2.47,1.12-4.64,1.53-.11-.38-.12-1.64-2.34-3.87-4.31-4.31-19.67-.7-19.67-11.3,0-4.89,4.64-6.84,7.3-6.69,2.25.12,3.2.82,3.37.92.01,0,.03,0,.05,0,.02-.01.03-.04.02-.07,0,0-1.69-3.71-6.48-3.71-5.3,0-12.75,3.88-12.75,12.35,0,17.58,24.63,16.48,24.63,31.33,0,5.8-3.4,8.76-7.69,10.28,0,0,2.05-1.45,2.05-4.21,0-12.57-29.12-9.87-29.12-23.67,0-5.37,4.59-7.32,5.76-7.32.03,0,.05-.02.05-.05,0-.02,0-.03-.02-.04-.14-.09-.89-.48-2.28-.48-3.65,0-10.6,3.28-10.6,11.64,0,9.95,12.95,16.21,12.95,21.02,0,2.09-1.31,3.51-1.31,3.51-10.64-3.39-24.23-14.06-24.23-33.07,0-23,21.48-33.58,29.9-33.58"/>
  </g>
</svg>