<?xml version="1.0" encoding="UTF-8"?>
<svg id="Layer_1" data-name="Layer 1" xmlns="http://www.w3.org/2000/svg" viewBox="0 0 300 300">
  <defs>
    <style>
      .cls-1, .cls-2 {
        stroke-width: 0px;
      }

      .cls-2 {
        fill: #fff;
      }
    </style>
  </defs>
  <rect class="cls-1" width="300" height="300"/>
  <g>
    <path class="cls-2" d="m55.07,175.73h9.26v1.43h-3.66v9.66h-1.97v-9.66h-3.63v-1.43Z"/>
    <path class="cls-2" d="m75.27,181.82h-5.2v4.99h-1.97v-11.08h1.97v4.66h5.2v-4.66h1.97v11.08h-1.97v-4.99Z"/>
    <path class="cls-2" d="m89.13,186.81h-6.92v-11.08h6.73v1.43h-4.76v3.23h3.47v1.43h-3.47v3.56h4.95v1.43Z"/>
    <path class="cls-2" d="m110.76,183.04c0,1.5-.89,4-4.57,4-2.93,0-4.57-1.43-4.57-4v-7.31h1.97v7.31c0,1.69.94,2.58,2.65,2.58,1.83,0,2.65-1.22,2.65-2.58v-7.31h1.87v7.31Z"/>
    <path class="cls-2" d="m125.74,175.73v11.08h-1.76l-6.35-7.99v7.99h-1.87v-11.08h1.8l6.35,8.02v-8.02h1.83Z"/>
    <path class="cls-2" d="m130.86,186.81v-11.08h1.97v11.08h-1.97Z"/>
    <path class="cls-2" d="m141.42,186.9h-.96l-3.77-11.18h1.99l2.48,7.59,2.65-7.59h1.83l-4.22,11.18Z"/>
    <path class="cls-2" d="m156.44,186.81h-6.91v-11.08h6.72v1.43h-4.76v3.23h3.47v1.43h-3.47v3.56h4.95v1.43Z"/>
    <path class="cls-2" d="m167.27,187.02l-3.07-5.11h-1.25v4.9h-1.99v-11.08h3.4c2.74,0,3.8,1.64,3.8,2.81,0,1.62-1.2,2.63-2.13,3l3.4,5.27-2.16.21Zm-3.49-6.54c1.5-.02,2.39-.8,2.39-1.74s-.82-1.62-2.37-1.62h-.87v3.35h.84Z"/>
    <path class="cls-2" d="m176.06,185.62c1.05,0,1.92-.61,1.92-1.45,0-.94-1.12-1.48-2.39-2.16-1.1-.59-2.88-1.52-2.88-3.51,0-1.59,1.43-3,3.52-3,1.47,0,2.46.35,3.07.66l-.54,1.27c-.58-.26-1.31-.49-2.51-.49-1.1,0-1.74.7-1.74,1.31,0,.96,1.11,1.57,2.3,2.23,1.03.56,3.12,1.43,3.12,3.44,0,2.18-2.53,3.14-3.86,3.14-1.88,0-3-.63-3.64-.94l.61-1.29c.52.24,1.57.8,3.03.8Z"/>
    <path class="cls-2" d="m184.33,186.81v-11.08h1.97v11.08h-1.97Z"/>
    <path class="cls-2" d="m190.06,175.73h9.26v1.43h-3.66v9.66h-1.97v-9.66h-3.63v-1.43Z"/>
    <path class="cls-2" d="m211.68,175.73l-3.7,5.72v5.36h-1.97v-5.36l-3.8-5.72h2.09l2.81,4.36,2.65-4.36h1.92Z"/>
    <path class="cls-2" d="m233.95,181.26c0,3.59-2.63,5.79-5.81,5.79s-5.84-2.18-5.84-5.79c0-3.35,2.46-5.77,5.84-5.77,3.56,0,5.81,2.32,5.81,5.77Zm-9.49,0c0,2.62,1.48,4.36,3.68,4.36s3.66-1.74,3.66-4.36-1.45-4.34-3.66-4.34-3.68,1.74-3.68,4.34Z"/>
    <path class="cls-2" d="m237.99,186.81v-11.08h6.35v1.43h-4.38v3.23h3.09v1.43h-3.09v4.99h-1.97Z"/>
    <g>
      <path class="cls-2" d="m76.43,196.95v23.04h-3.65l-13.2-16.61v16.61h-3.89v-23.04h3.75l13.2,16.66v-16.66h3.8Z"/>
      <path class="cls-2" d="m96.17,219.99h-14.37v-23.04h13.98v2.97h-9.89v6.72h7.21v2.97h-7.21v7.4h10.28v2.97Z"/>
      <path class="cls-2" d="m108.4,220.18h-2.09l-7.84-23.23h4.24l5.31,16.22,3.41-9.54-2.19-6.67h4.19l5.11,15.78,5.51-15.78h3.8l-8.72,23.23h-2.09l-4.04-12.08-4.58,12.08Z"/>
      <path class="cls-2" d="m149.35,218.48c-1.61,1.02-3.8,1.99-8.38,1.99-8.09,0-12.37-6.09-12.37-12.03s4.28-11.98,12.37-11.98c4.53,0,6.92,1.36,7.89,1.8l-1.26,2.78c-.78-.34-2.83-1.56-6.48-1.56-5.01,0-8.04,3.75-8.04,8.96s3.17,9.01,8.42,9.01c3.65,0,5.51-1.02,6.58-1.51l1.26,2.53Z"/>
      <path class="cls-2" d="m154.83,219.99h-3.99l10.18-23.14h1.56l9.06,23.14h-4.33l-2.19-5.75h-7.89l-2.39,5.75Zm6.48-15.59l-2.87,6.87h5.55l-2.68-6.87Z"/>
      <path class="cls-2" d="m181.57,217.5c2.19,0,3.99-1.27,3.99-3.02,0-1.95-2.34-3.07-4.97-4.48-2.29-1.22-5.99-3.17-5.99-7.31,0-3.31,2.97-6.24,7.31-6.24,3.07,0,5.11.73,6.38,1.36l-1.12,2.63c-1.22-.53-2.73-1.02-5.21-1.02-2.29,0-3.61,1.46-3.61,2.73,0,2,2.29,3.26,4.78,4.63,2.14,1.17,6.48,2.97,6.48,7.16,0,4.53-5.26,6.53-8.04,6.53-3.9,0-6.23-1.31-7.55-1.95l1.27-2.68c1.07.48,3.26,1.65,6.28,1.65Z"/>
      <path class="cls-2" d="m191.63,196.95h19.24v2.97h-7.6v20.06h-4.09v-20.06h-7.55v-2.97Z"/>
      <path class="cls-2" d="m218.4,217.02h8.82v2.97h-12.91v-23.04h4.09v20.06Z"/>
      <path class="cls-2" d="m244.74,219.99h-14.37v-23.04h13.98v2.97h-9.88v6.72h7.21v2.97h-7.21v7.4h10.28v2.97Z"/>
    </g>
    <g>
      <path class="cls-2" d="m102.01,241.21h-1.92l4.9-11.14h.75l4.36,11.14h-2.09l-1.06-2.76h-3.8l-1.15,2.76Zm3.12-7.5l-1.39,3.31h2.67l-1.29-3.31Z"/>
      <path class="cls-2" d="m122.71,237.44c0,1.5-.89,4.01-4.57,4.01-2.93,0-4.57-1.43-4.57-4.01v-7.31h1.97v7.31c0,1.69.94,2.58,2.65,2.58,1.83,0,2.65-1.22,2.65-2.58v-7.31h1.87v7.31Z"/>
      <path class="cls-2" d="m130.5,240.02c1.05,0,1.92-.61,1.92-1.45,0-.94-1.13-1.48-2.39-2.16-1.1-.59-2.89-1.53-2.89-3.52,0-1.6,1.43-3,3.52-3,1.48,0,2.46.35,3.07.66l-.54,1.27c-.59-.26-1.31-.49-2.51-.49-1.1,0-1.73.7-1.73,1.31,0,.96,1.1,1.57,2.29,2.22,1.03.56,3.12,1.43,3.12,3.45,0,2.18-2.53,3.14-3.87,3.14-1.87,0-3-.63-3.63-.94l.61-1.29c.52.23,1.57.8,3.02.8Z"/>
      <path class="cls-2" d="m137.35,230.13h9.26v1.43h-3.66v9.66h-1.97v-9.66h-3.63v-1.43Z"/>
      <path class="cls-2" d="m156.68,241.43l-3.07-5.11h-1.24v4.9h-1.99v-11.09h3.4c2.74,0,3.79,1.64,3.79,2.81,0,1.62-1.2,2.63-2.13,3l3.4,5.28-2.15.21Zm-3.5-6.54c1.5-.02,2.39-.79,2.39-1.73,0-.99-.82-1.62-2.37-1.62h-.87v3.35h.84Z"/>
      <path class="cls-2" d="m163.19,241.21h-1.92l4.9-11.14h.75l4.36,11.14h-2.09l-1.06-2.76h-3.8l-1.15,2.76Zm3.12-7.5l-1.38,3.31h2.67l-1.29-3.31Z"/>
      <path class="cls-2" d="m176.9,239.78h4.24v1.43h-6.21v-11.09h1.97v9.66Z"/>
      <path class="cls-2" d="m184.77,241.21v-11.09h1.97v11.09h-1.97Z"/>
      <path class="cls-2" d="m192.25,241.21h-1.92l4.9-11.14h.75l4.36,11.14h-2.09l-1.05-2.76h-3.8l-1.15,2.76Zm3.12-7.5l-1.38,3.31h2.67l-1.29-3.31Z"/>
    </g>
    <path class="cls-2" d="m142.61,60.78s.04.02.04.04-.02.03-.04.04c-14.58,5.1-19.21,22.85-19.21,22.85,0,.03,0,.05.03.07.03.02.07.01.09-.02,26.39-34.57,50.97-23.38,50.97-23.38.05.01.07.05.06.1,0,.04-.04.07-.08.06-.47-.04-7.74-.63-10.16,6.08l36.64,40.91c0,1.19-.46,2.25-1.19,3.18-.38-.56-1.95-1.29-3-1.63-1.43-.46-2.77-.69-2.77-1.76,0-.77.68-.98,1.03-.98.31,0,.49.15.49.15,0,0,.02,0,.02,0,0,0,.01-.02,0-.02,0,0-.25-.54-.98-.56-.71-.02-1.84.49-1.91,1.84-.05,1.11.48,1.72,1.29,2.28.8.55,2.37,1.26,2.37,2.43s-.89,1.44-1.09,1.54c-.39.19-3.71,1.68-6.96,2.29-.16-.57-.17-2.46-3.51-5.8-6.46-6.46-29.51-1.06-29.51-16.95,0-7.33,6.96-10.26,10.95-10.04,3.38.19,4.8,1.22,5.05,1.39.02.01.05.01.07,0,.04-.02.05-.06.02-.1,0,0-2.53-5.57-9.72-5.57-7.95,0-19.13,5.82-19.13,18.52,0,26.37,36.95,24.71,36.95,47,0,8.7-5.11,13.14-11.54,15.42,0,0,3.07-2.17,3.07-6.31,0-18.85-43.68-14.8-43.68-35.51,0-8.06,6.88-10.98,8.64-10.98.04,0,.07-.03.07-.07,0-.03-.01-.05-.04-.06-.21-.13-1.33-.72-3.42-.72-5.47,0-15.89,4.92-15.89,17.46,0,14.93,19.42,24.32,19.42,31.52,0,3.14-1.97,5.26-1.97,5.26-15.95-5.09-36.34-21.09-36.34-49.61,0-34.5,32.22-50.37,44.85-50.37"/>
  </g>
</svg>