<?xml version="1.0" encoding="UTF-8"?>
<svg id="Layer_1" data-name="Layer 1" xmlns="http://www.w3.org/2000/svg" viewBox="0 0 120 120">
  <defs>
    <style>
      .cls-1, .cls-2 {
        stroke-width: 0px;
      }

      .cls-2 {
        fill: #fff;
      }
    </style>
  </defs>
  <rect class="cls-1" width="120" height="120"/>
  <g>
    <path class="cls-2" d="m22.03,70.29h3.7v.57h-1.46v3.86h-.79v-3.86h-1.45v-.57Z"/>
    <path class="cls-2" d="m30.11,72.73h-2.08v2h-.79v-4.43h.79v1.86h2.08v-1.86h.79v4.43h-.79v-2Z"/>
    <path class="cls-2" d="m35.65,74.72h-2.77v-4.43h2.69v.57h-1.9v1.29h1.39v.57h-1.39v1.43h1.98v.57Z"/>
    <path class="cls-2" d="m44.3,73.22c0,.6-.36,1.6-1.83,1.6-1.17,0-1.83-.57-1.83-1.6v-2.93h.79v2.93c0,.67.38,1.03,1.06,1.03.73,0,1.06-.49,1.06-1.03v-2.93h.75v2.93Z"/>
    <path class="cls-2" d="m50.3,70.29v4.43h-.7l-2.54-3.2v3.2h-.75v-4.43h.72l2.54,3.21v-3.21h.73Z"/>
    <path class="cls-2" d="m52.34,74.72v-4.43h.79v4.43h-.79Z"/>
    <path class="cls-2" d="m56.57,74.76h-.38l-1.51-4.47h.8l.99,3.04,1.06-3.04h.73l-1.69,4.47Z"/>
    <path class="cls-2" d="m62.58,74.72h-2.76v-4.43h2.69v.57h-1.9v1.29h1.39v.57h-1.39v1.43h1.98v.57Z"/>
    <path class="cls-2" d="m66.91,74.81l-1.23-2.04h-.5v1.96h-.8v-4.43h1.36c1.1,0,1.52.66,1.52,1.12,0,.65-.48,1.05-.85,1.2l1.36,2.11-.86.09Zm-1.4-2.62c.6,0,.96-.32.96-.69s-.33-.65-.95-.65h-.35v1.34h.34Z"/>
    <path class="cls-2" d="m70.43,74.25c.42,0,.77-.24.77-.58,0-.38-.45-.59-.96-.86-.44-.23-1.15-.61-1.15-1.41,0-.64.57-1.2,1.41-1.2.59,0,.98.14,1.23.26l-.22.51c-.23-.1-.52-.2-1-.2-.44,0-.69.28-.69.53,0,.38.44.63.92.89.41.22,1.25.57,1.25,1.38,0,.87-1.01,1.26-1.55,1.26-.75,0-1.2-.25-1.45-.37l.24-.52c.21.1.63.32,1.21.32Z"/>
    <path class="cls-2" d="m73.73,74.72v-4.43h.79v4.43h-.79Z"/>
    <path class="cls-2" d="m76.03,70.29h3.7v.57h-1.46v3.86h-.79v-3.86h-1.45v-.57Z"/>
    <path class="cls-2" d="m84.67,70.29l-1.48,2.29v2.15h-.79v-2.15l-1.52-2.29h.84l1.12,1.74,1.06-1.74h.77Z"/>
    <path class="cls-2" d="m93.58,72.5c0,1.43-1.05,2.32-2.33,2.32s-2.33-.87-2.33-2.32c0-1.34.98-2.31,2.33-2.31,1.43,0,2.33.93,2.33,2.31Zm-3.8,0c0,1.05.59,1.74,1.47,1.74s1.46-.69,1.46-1.74-.58-1.73-1.46-1.73-1.47.69-1.47,1.73Z"/>
    <path class="cls-2" d="m95.2,74.72v-4.43h2.54v.57h-1.75v1.29h1.24v.57h-1.24v2h-.79Z"/>
    <g>
      <path class="cls-2" d="m30.57,78.78v9.21h-1.46l-5.28-6.64v6.64h-1.56v-9.21h1.5l5.28,6.66v-6.66h1.52Z"/>
      <path class="cls-2" d="m38.47,87.99h-5.75v-9.21h5.59v1.19h-3.96v2.69h2.88v1.19h-2.88v2.96h4.11v1.19Z"/>
      <path class="cls-2" d="m43.36,88.07h-.84l-3.14-9.29h1.69l2.12,6.49,1.36-3.82-.88-2.67h1.68l2.05,6.31,2.2-6.31h1.52l-3.49,9.29h-.84l-1.62-4.83-1.83,4.83Z"/>
      <path class="cls-2" d="m59.74,87.39c-.64.41-1.52.8-3.35.8-3.23,0-4.95-2.43-4.95-4.81s1.71-4.79,4.95-4.79c1.81,0,2.77.55,3.16.72l-.51,1.11c-.31-.14-1.13-.62-2.59-.62-2.01,0-3.21,1.5-3.21,3.58s1.27,3.6,3.37,3.6c1.46,0,2.2-.41,2.63-.6l.51,1.01Z"/>
      <path class="cls-2" d="m61.93,87.99h-1.6l4.07-9.25h.62l3.62,9.25h-1.73l-.88-2.3h-3.16l-.95,2.3Zm2.59-6.23l-1.15,2.75h2.22l-1.07-2.75Z"/>
      <path class="cls-2" d="m72.63,87c.88,0,1.6-.51,1.6-1.21,0-.78-.94-1.23-1.99-1.79-.92-.49-2.4-1.27-2.4-2.92,0-1.32,1.19-2.49,2.92-2.49,1.23,0,2.04.29,2.55.55l-.45,1.05c-.49-.21-1.09-.41-2.08-.41-.92,0-1.44.58-1.44,1.09,0,.8.92,1.31,1.91,1.85.86.47,2.59,1.19,2.59,2.86,0,1.81-2.11,2.61-3.21,2.61-1.56,0-2.49-.53-3.02-.78l.51-1.07c.43.19,1.31.66,2.51.66Z"/>
      <path class="cls-2" d="m76.65,78.78h7.69v1.19h-3.04v8.03h-1.64v-8.03h-3.02v-1.19Z"/>
      <path class="cls-2" d="m87.36,86.81h3.53v1.19h-5.16v-9.21h1.64v8.03Z"/>
      <path class="cls-2" d="m97.9,87.99h-5.75v-9.21h5.59v1.19h-3.95v2.69h2.88v1.19h-2.88v2.96h4.11v1.19Z"/>
    </g>
    <g>
      <path class="cls-2" d="m40.8,96.49h-.77l1.96-4.45h.3l1.74,4.45h-.83l-.42-1.11h-1.52l-.46,1.11Zm1.25-3l-.55,1.32h1.07l-.52-1.32Z"/>
      <path class="cls-2" d="m49.08,94.98c0,.6-.36,1.6-1.83,1.6-1.17,0-1.83-.57-1.83-1.6v-2.93h.79v2.93c0,.67.37,1.03,1.06,1.03.73,0,1.06-.49,1.06-1.03v-2.93h.75v2.93Z"/>
      <path class="cls-2" d="m52.2,96.01c.42,0,.77-.24.77-.58,0-.38-.45-.59-.96-.86-.44-.23-1.15-.61-1.15-1.41,0-.64.57-1.2,1.41-1.2.59,0,.98.14,1.23.26l-.22.51c-.23-.1-.53-.2-1-.2-.44,0-.69.28-.69.53,0,.38.44.63.92.89.41.22,1.25.57,1.25,1.38,0,.87-1.01,1.26-1.55,1.26-.75,0-1.2-.25-1.45-.38l.24-.52c.21.09.63.32,1.21.32Z"/>
      <path class="cls-2" d="m54.94,92.05h3.7v.57h-1.46v3.86h-.79v-3.86h-1.45v-.57Z"/>
      <path class="cls-2" d="m62.67,96.57l-1.23-2.04h-.5v1.96h-.8v-4.44h1.36c1.1,0,1.52.66,1.52,1.13,0,.65-.48,1.05-.85,1.2l1.36,2.11-.86.08Zm-1.4-2.62c.6,0,.96-.32.96-.69,0-.39-.33-.65-.95-.65h-.35v1.34h.34Z"/>
      <path class="cls-2" d="m65.28,96.49h-.77l1.96-4.45h.3l1.74,4.45h-.83l-.42-1.11h-1.52l-.46,1.11Zm1.25-3l-.55,1.32h1.07l-.52-1.32Z"/>
      <path class="cls-2" d="m70.76,95.91h1.7v.57h-2.49v-4.44h.79v3.86Z"/>
      <path class="cls-2" d="m73.91,96.49v-4.44h.79v4.44h-.79Z"/>
      <path class="cls-2" d="m76.9,96.49h-.77l1.96-4.45h.3l1.75,4.45h-.84l-.42-1.11h-1.52l-.46,1.11Zm1.25-3l-.55,1.32h1.07l-.52-1.32Z"/>
    </g>
    <path class="cls-2" d="m57.04,24.31s.02,0,.02.02,0,.01-.02.02c-5.83,2.04-7.68,9.14-7.68,9.14,0,.01,0,.02.01.03.01,0,.03,0,.04,0,10.56-13.83,20.39-9.35,20.39-9.35.02,0,.03.02.02.04,0,.02-.02.03-.03.02-.19-.02-3.1-.25-4.07,2.43l14.66,16.36c0,.48-.18.9-.48,1.27-.15-.22-.78-.52-1.2-.65-.57-.19-1.11-.28-1.11-.7,0-.31.27-.39.41-.39.13,0,.2.06.2.06,0,0,0,0,0,0,0,0,0,0,0,0,0,0-.1-.22-.39-.22-.28,0-.74.2-.77.74-.02.45.19.69.52.91.32.22.95.5.95.97s-.36.58-.44.61c-.16.08-1.48.67-2.78.92-.07-.23-.07-.98-1.4-2.32-2.58-2.58-11.8-.42-11.8-6.78,0-2.93,2.79-4.1,4.38-4.02,1.35.07,1.92.49,2.02.55,0,0,.02,0,.03,0,.01,0,.02-.03,0-.04,0,0-1.01-2.23-3.89-2.23-3.18,0-7.65,2.33-7.65,7.41,0,10.55,14.78,9.89,14.78,18.8,0,3.48-2.04,5.25-4.61,6.17,0,0,1.23-.87,1.23-2.53,0-7.54-17.47-5.92-17.47-14.2,0-3.22,2.75-4.39,3.46-4.39.02,0,.03-.01.03-.03,0-.01,0-.02-.01-.02-.09-.05-.53-.29-1.37-.29-2.19,0-6.36,1.97-6.36,6.98,0,5.97,7.77,9.73,7.77,12.61,0,1.26-.79,2.11-.79,2.11-6.38-2.04-14.54-8.43-14.54-19.84,0-13.8,12.89-20.15,17.94-20.15"/>
  </g>
</svg>