<?xml version="1.0" encoding="UTF-8"?>
<svg id="Layer_1" data-name="Layer 1" xmlns="http://www.w3.org/2000/svg" viewBox="0 0 300 110">
  <defs>
    <style>
      .cls-1 {
        fill: #fff;
        stroke-width: 0px;
      }
    </style>
  </defs>
  <path class="cls-1" d="m46.39,4.4s.05.01.05.04c0,.02-.02.03-.04.03-15.08,5.28-19.88,23.64-19.88,23.64,0,.02,0,.05.03.07.03.02.07.01.09-.02C53.94-7.59,79.37,3.99,79.37,3.99c.04.01.07.05.06.09-.01.05-.04.08-.09.07-.48-.05-8.01-.65-10.51,6.29l37.9,42.31c0,1.23-.47,2.33-1.23,3.29-.39-.58-2.02-1.34-3.1-1.69-1.49-.48-2.86-.72-2.86-1.82,0-.8.7-1.02,1.06-1.02.32,0,.51.15.51.15,0,0,.02.02.02,0,.01,0,.01-.01,0-.02,0,0-.25-.57-1.01-.57-.73-.02-1.91.5-1.98,1.9-.05,1.15.5,1.78,1.33,2.36.83.58,2.45,1.31,2.45,2.51s-.93,1.49-1.13,1.59c-.4.19-3.83,1.73-7.19,2.37-.17-.59-.21-2.52-3.63-6-7.38-7.53-30.33-.46-30.33-17.72,0-7.87,7.44-10.19,11.13-10.19,3.07,0,4.96,1.27,5.22,1.43.02.01.05.01.08,0,.03-.02.04-.07.02-.11,0,0-2.61-5.76-10.05-5.76-8.23,0-19.78,6.02-19.78,19.16,0,27.28,38.21,25.56,38.21,48.62,0,8.99-5.28,13.58-11.92,15.95,0,0,3.17-2.25,3.17-6.53,0-19.5-45.17-15.3-45.17-36.72,0-8.34,7.11-11.36,8.94-11.36.04,0,.07-.03.07-.08,0-.02-.02-.05-.04-.06-.22-.14-1.37-.74-3.54-.74-5.65,0-16.44,5.09-16.44,18.06,0,15.44,20.08,25.14,20.08,32.6,0,3.25-2.04,5.44-2.04,5.44C21.09,102.54,0,86,0,56.5,0,20.81,33.33,4.4,46.39,4.4"/>
  <polygon class="cls-1" points="117.77 30.37 126.66 30.37 126.66 31.73 123.15 31.73 123.15 41.01 121.26 41.01 121.26 31.73 117.77 31.73 117.77 30.37"/>
  <polygon class="cls-1" points="137.17 36.22 132.17 36.22 132.17 41.01 130.28 41.01 130.28 30.37 132.17 30.37 132.17 34.84 137.17 34.84 137.17 30.37 139.06 30.37 139.06 41.01 137.17 41.01 137.17 36.22"/>
  <polygon class="cls-1" points="150.49 41.01 143.84 41.01 143.84 30.37 150.31 30.37 150.31 31.73 145.74 31.73 145.74 34.84 149.07 34.84 149.07 36.22 145.74 36.22 145.74 39.64 150.49 39.64 150.49 41.01"/>
  <path class="cls-1" d="m171.27,37.39c0,1.44-.86,3.85-4.39,3.85-2.82,0-4.39-1.38-4.39-3.85v-7.02h1.89v7.02c0,1.62.9,2.48,2.54,2.48,1.76,0,2.54-1.17,2.54-2.48v-7.02h1.8v7.02Z"/>
  <polygon class="cls-1" points="185.67 30.37 185.67 41.01 183.98 41.01 177.88 33.34 177.88 41.01 176.08 41.01 176.08 30.37 177.81 30.37 183.92 38.07 183.92 30.37 185.67 30.37"/>
  <rect class="cls-1" x="190.78" y="30.37" width="1.49" height="10.64"/>
  <polygon class="cls-1" points="200.73 41.11 199.81 41.11 196.19 30.37 198.1 30.37 200.48 37.66 203.03 30.37 204.79 30.37 200.73 41.11"/>
  <polygon class="cls-1" points="215.16 41.01 208.52 41.01 208.52 30.37 214.98 30.37 214.98 31.73 210.41 31.73 210.41 34.84 213.74 34.84 213.74 36.22 210.41 36.22 210.41 39.64 215.16 39.64 215.16 41.01"/>
  <path class="cls-1" d="m225.57,41.22l-2.95-4.91h-1.2v4.7h-1.91v-10.64h3.26c2.64,0,3.65,1.57,3.65,2.7,0,1.55-1.15,2.52-2.05,2.87l3.26,5.07-2.07.21Zm-3.35-6.28c1.44-.03,2.29-.77,2.29-1.67s-.79-1.55-2.27-1.55h-.83v3.23h.81Z"/>
  <path class="cls-1" d="m234.02,39.87c1.01,0,1.84-.59,1.84-1.4,0-.9-1.08-1.42-2.29-2.06-1.06-.57-2.77-1.47-2.77-3.39,0-1.53,1.37-2.89,3.38-2.89,1.42,0,2.36.34,2.95.64l-.52,1.21c-.56-.25-1.26-.47-2.41-.47-1.06,0-1.66.67-1.66,1.26,0,.93,1.06,1.51,2.2,2.14.99.55,2.99,1.38,2.99,3.31,0,2.09-2.44,3.02-3.71,3.02-1.81,0-2.88-.61-3.5-.9l.58-1.25c.5.23,1.51.77,2.92.77"/>
  <rect class="cls-1" x="242.16" y="30.37" width="1.49" height="10.64"/>
  <polygon class="cls-1" points="247.47 30.37 256.37 30.37 256.37 31.73 252.86 31.73 252.86 41.01 250.97 41.01 250.97 31.73 247.47 31.73 247.47 30.37"/>
  <polygon class="cls-1" points="268.24 30.37 264.68 35.86 264.68 41.01 262.78 41.01 262.78 35.86 259.14 30.37 261.15 30.37 263.85 34.55 266.39 30.37 268.24 30.37"/>
  <path class="cls-1" d="m289.63,35.68c0,3.45-2.52,5.57-5.58,5.57s-5.61-2.09-5.61-5.57c0-3.22,2.37-5.54,5.61-5.54,3.42,0,5.58,2.23,5.58,5.54m-9.12,0c0,2.52,1.42,4.19,3.54,4.19s3.51-1.66,3.51-4.19-1.39-4.16-3.51-4.16-3.54,1.67-3.54,4.16"/>
  <polygon class="cls-1" points="293.52 41.01 293.52 30.37 299.63 30.37 299.63 31.73 295.42 31.73 295.42 34.84 298.39 34.84 298.39 36.22 295.42 36.22 295.42 41.01 293.52 41.01"/>
  <polygon class="cls-1" points="138.29 50.75 138.29 72.89 134.78 72.89 122.1 56.93 122.1 72.89 118.36 72.89 118.36 50.75 121.96 50.75 134.64 66.76 134.64 50.75 138.29 50.75"/>
  <polygon class="cls-1" points="157.26 72.89 143.46 72.89 143.46 50.75 156.89 50.75 156.89 53.61 147.39 53.61 147.39 60.07 154.31 60.07 154.31 62.93 147.39 62.93 147.39 70.04 157.26 70.04 157.26 72.89"/>
  <polygon class="cls-1" points="169.01 73.08 167 73.08 159.47 50.75 163.53 50.75 168.63 66.33 171.91 57.16 169.8 50.75 173.83 50.75 178.74 65.92 184.03 50.75 187.68 50.75 179.31 73.08 177.29 73.08 173.41 61.47 169.01 73.08"/>
  <path class="cls-1" d="m208.36,71.44c-1.54.98-3.65,1.92-8.05,1.92-7.77,0-11.88-5.85-11.88-11.56s4.12-11.51,11.88-11.51c4.35,0,6.64,1.31,7.58,1.73l-1.22,2.67c-.75-.33-2.72-1.49-6.22-1.49-4.82,0-7.72,3.6-7.72,8.6s3.04,8.66,8.09,8.66c3.51,0,5.3-.98,6.32-1.45l1.22,2.43Z"/>
  <path class="cls-1" d="m213.62,72.89h-3.84l9.79-22.23h1.5l8.7,22.23h-4.16l-2.1-5.52h-7.58l-2.29,5.52Zm6.23-14.97l-2.76,6.6h5.33l-2.57-6.6Z"/>
  <path class="cls-1" d="m239.31,70.5c2.11,0,3.84-1.22,3.84-2.9,0-1.87-2.25-2.95-4.77-4.3-2.2-1.17-5.75-3.05-5.75-7.02,0-3.18,2.85-5.99,7.02-5.99,2.95,0,4.91.7,6.13,1.31l-1.08,2.53c-1.17-.51-2.62-.98-5.01-.98-2.2,0-3.46,1.4-3.46,2.62,0,1.93,2.2,3.14,4.59,4.46,2.05,1.12,6.23,2.86,6.23,6.88,0,4.35-5.06,6.27-7.73,6.27-3.75,0-5.99-1.26-7.26-1.87l1.22-2.57c1.03.46,3.14,1.59,6.03,1.59"/>
  <polygon class="cls-1" points="248.97 50.75 267.45 50.75 267.45 53.61 260.15 53.61 260.15 72.89 256.23 72.89 256.23 53.61 248.97 53.61 248.97 50.75"/>
  <polygon class="cls-1" points="274.69 70.04 283.16 70.04 283.16 72.89 270.77 72.89 270.77 50.75 274.69 50.75 274.69 70.04"/>
  <polygon class="cls-1" points="300 72.89 286.19 72.89 286.19 50.75 299.63 50.75 299.63 53.61 290.12 53.61 290.12 60.07 297.05 60.07 297.05 62.93 290.12 62.93 290.12 70.04 300 70.04 300 72.89"/>
  <path class="cls-1" d="m119.27,93.29h-1.85l4.71-10.71h.73l4.19,10.71h-2.01l-1.01-2.66h-3.65l-1.1,2.66Zm3-7.22l-1.33,3.17h2.57l-1.24-3.17Z"/>
  <path class="cls-1" d="m139.16,89.66c0,1.44-.85,3.86-4.39,3.86-2.81,0-4.39-1.38-4.39-3.86v-7.03h1.9v7.03c0,1.62.9,2.48,2.54,2.48,1.76,0,2.55-1.17,2.55-2.48v-7.03h1.8v7.03Z"/>
  <path class="cls-1" d="m146.64,92.14c1.02,0,1.85-.59,1.85-1.4,0-.9-1.09-1.41-2.3-2.07-1.05-.56-2.77-1.47-2.77-3.38,0-1.53,1.37-2.88,3.38-2.88,1.42,0,2.37.34,2.95.63l-.52,1.22c-.56-.24-1.26-.48-2.41-.48-1.06,0-1.67.67-1.67,1.26,0,.92,1.05,1.51,2.21,2.14.99.54,2.99,1.38,2.99,3.31,0,2.1-2.42,3.03-3.71,3.03-1.8,0-2.88-.61-3.49-.91l.58-1.24c.5.22,1.51.77,2.91.77"/>
  <polygon class="cls-1" points="153.22 82.63 162.11 82.63 162.11 84.01 158.61 84.01 158.61 93.29 156.71 93.29 156.71 84.01 153.22 84.01 153.22 82.63"/>
  <path class="cls-1" d="m171.8,93.49l-2.95-4.91h-1.19v4.71h-1.92v-10.66h3.27c2.63,0,3.65,1.58,3.65,2.7,0,1.55-1.15,2.53-2.05,2.88l3.27,5.08-2.07.2Zm-3.36-6.29c1.45-.02,2.3-.75,2.3-1.66s-.79-1.55-2.27-1.55h-.83v3.21h.81Z"/>
  <path class="cls-1" d="m178.05,93.29h-1.85l4.71-10.71h.72l4.19,10.71h-2l-1.02-2.66h-3.65l-1.1,2.66Zm2.99-7.22l-1.32,3.17h2.56l-1.24-3.17Z"/>
  <polygon class="cls-1" points="191.23 91.91 195.3 91.91 195.3 93.29 189.33 93.29 189.33 82.63 191.23 82.63 191.23 91.91"/>
  <rect class="cls-1" x="198.98" y="82.63" width="1.49" height="10.66"/>
  <path class="cls-1" d="m205.97,93.29h-1.85l4.71-10.71h.72l4.2,10.71h-2.01l-1.01-2.66h-3.65l-1.1,2.66Zm3-7.22l-1.33,3.17h2.56l-1.24-3.17Z"/>
</svg>