<?xml version="1.0" encoding="UTF-8"?>
<svg id="Layer_1" data-name="Layer 1" xmlns="http://www.w3.org/2000/svg" viewBox="0 0 200 75">
  <defs>
    <style>
      .cls-1 {
        fill: #fff;
        stroke-width: 0px;
      }
    </style>
  </defs>
  <path class="cls-1" d="m30.93,3.76s.03,0,.03.03c0,.01-.01.02-.03.02-10.05,3.52-13.25,15.76-13.25,15.76,0,.01,0,.04.02.04.02.01.05,0,.06-.01C35.96-4.22,52.91,3.49,52.91,3.49c.03,0,.05.04.04.06,0,.03-.03.05-.06.05-.32-.03-5.34-.43-7.01,4.2l25.27,28.21c0,.82-.31,1.55-.82,2.19-.26-.38-1.35-.89-2.07-1.12-.99-.32-1.91-.48-1.91-1.21,0-.53.46-.68.71-.68.22,0,.34.1.34.1,0,0,.01.01.01,0,0,0,0,0,0-.01,0,0-.17-.38-.67-.38-.49-.01-1.27.34-1.32,1.27-.03.77.33,1.19.89,1.57.55.38,1.63.87,1.63,1.68s-.62,1-.76,1.06c-.27.13-2.55,1.16-4.8,1.58-.11-.39-.14-1.68-2.42-4-4.92-5.02-20.22-.31-20.22-11.82,0-5.25,4.96-6.79,7.42-6.79,2.05,0,3.31.84,3.48.96.01,0,.03,0,.05,0,.02-.02.03-.05.01-.07,0,0-1.74-3.84-6.7-3.84-5.49,0-13.19,4.01-13.19,12.77,0,18.19,25.47,17.04,25.47,32.41,0,6-3.52,9.06-7.95,10.63,0,0,2.12-1.5,2.12-4.35,0-13-30.12-10.2-30.12-24.48,0-5.56,4.74-7.57,5.96-7.57.03,0,.05-.02.05-.05,0-.02-.01-.04-.03-.04-.15-.09-.92-.49-2.36-.49-3.77,0-10.96,3.39-10.96,12.04,0,10.29,13.39,16.76,13.39,21.74,0,2.16-1.36,3.63-1.36,3.63C14.06,69.2,0,58.17,0,38.5,0,14.71,22.22,3.76,30.93,3.76"/>
  <polygon class="cls-1" points="78.51 21.08 84.44 21.08 84.44 21.99 82.1 21.99 82.1 28.17 80.84 28.17 80.84 21.99 78.51 21.99 78.51 21.08"/>
  <polygon class="cls-1" points="91.45 24.98 88.11 24.98 88.11 28.17 86.86 28.17 86.86 21.08 88.11 21.08 88.11 24.06 91.45 24.06 91.45 21.08 92.71 21.08 92.71 28.17 91.45 28.17 91.45 24.98"/>
  <polygon class="cls-1" points="100.33 28.17 95.9 28.17 95.9 21.08 100.21 21.08 100.21 21.99 97.16 21.99 97.16 24.06 99.38 24.06 99.38 24.98 97.16 24.98 97.16 27.26 100.33 27.26 100.33 28.17"/>
  <path class="cls-1" d="m114.18,25.76c0,.96-.57,2.57-2.93,2.57-1.88,0-2.93-.92-2.93-2.57v-4.68h1.26v4.68c0,1.08.6,1.65,1.7,1.65,1.17,0,1.7-.78,1.7-1.65v-4.68h1.2v4.68Z"/>
  <polygon class="cls-1" points="123.78 21.08 123.78 28.17 122.65 28.17 118.59 23.06 118.59 28.17 117.39 28.17 117.39 21.08 118.54 21.08 122.61 26.21 122.61 21.08 123.78 21.08"/>
  <rect class="cls-1" x="127.19" y="21.08" width="1" height="7.09"/>
  <polygon class="cls-1" points="133.82 28.24 133.21 28.24 130.79 21.08 132.07 21.08 133.66 25.94 135.36 21.08 136.53 21.08 133.82 28.24"/>
  <polygon class="cls-1" points="143.44 28.17 139.02 28.17 139.02 21.08 143.32 21.08 143.32 21.99 140.27 21.99 140.27 24.06 142.5 24.06 142.5 24.98 140.27 24.98 140.27 27.26 143.44 27.26 143.44 28.17"/>
  <path class="cls-1" d="m150.38,28.31l-1.97-3.27h-.8v3.13h-1.28v-7.09h2.17c1.76,0,2.43,1.05,2.43,1.8,0,1.03-.77,1.68-1.36,1.92l2.18,3.38-1.38.14Zm-2.24-4.19c.96-.02,1.53-.52,1.53-1.12s-.52-1.04-1.51-1.04h-.56v2.15h.54Z"/>
  <path class="cls-1" d="m156.01,27.41c.67,0,1.23-.39,1.23-.93,0-.6-.72-.94-1.53-1.38-.71-.38-1.85-.98-1.85-2.26,0-1.02.92-1.92,2.25-1.92.95,0,1.58.22,1.97.43l-.35.81c-.37-.17-.84-.31-1.61-.31-.7,0-1.11.45-1.11.84,0,.62.71,1,1.47,1.42.66.36,2,.92,2,2.21,0,1.4-1.62,2.01-2.47,2.01-1.2,0-1.92-.41-2.33-.6l.39-.83c.33.16,1.01.52,1.94.52"/>
  <rect class="cls-1" x="161.44" y="21.08" width="1" height="7.09"/>
  <polygon class="cls-1" points="164.98 21.08 170.91 21.08 170.91 21.99 168.57 21.99 168.57 28.17 167.31 28.17 167.31 21.99 164.98 21.99 164.98 21.08"/>
  <polygon class="cls-1" points="178.82 21.08 176.45 24.74 176.45 28.17 175.19 28.17 175.19 24.74 172.76 21.08 174.1 21.08 175.9 23.87 177.6 21.08 178.82 21.08"/>
  <path class="cls-1" d="m193.09,24.62c0,2.3-1.68,3.71-3.72,3.71s-3.74-1.4-3.74-3.71c0-2.14,1.58-3.7,3.74-3.7,2.28,0,3.72,1.49,3.72,3.7m-6.08,0c0,1.68.95,2.79,2.36,2.79s2.34-1.11,2.34-2.79-.93-2.78-2.34-2.78-2.36,1.11-2.36,2.78"/>
  <polygon class="cls-1" points="195.68 28.17 195.68 21.08 199.75 21.08 199.75 21.99 196.94 21.99 196.94 24.06 198.92 24.06 198.92 24.98 196.94 24.98 196.94 28.17 195.68 28.17"/>
  <polygon class="cls-1" points="92.2 34.67 92.2 49.43 89.85 49.43 81.4 38.79 81.4 49.43 78.91 49.43 78.91 34.67 81.3 34.67 89.76 45.34 89.76 34.67 92.2 34.67"/>
  <polygon class="cls-1" points="104.84 49.43 95.64 49.43 95.64 34.67 104.59 34.67 104.59 36.58 98.26 36.58 98.26 40.88 102.88 40.88 102.88 42.79 98.26 42.79 98.26 47.52 104.84 47.52 104.84 49.43"/>
  <polygon class="cls-1" points="112.68 49.55 111.33 49.55 106.31 34.67 109.02 34.67 112.42 45.06 114.61 38.94 113.2 34.67 115.89 34.67 119.16 44.78 122.69 34.67 125.12 34.67 119.54 49.55 118.19 49.55 115.61 41.82 112.68 49.55"/>
  <path class="cls-1" d="m138.9,48.46c-1.03.65-2.43,1.28-5.37,1.28-5.18,0-7.92-3.9-7.92-7.71s2.74-7.67,7.92-7.67c2.9,0,4.43.87,5.05,1.15l-.81,1.78c-.5-.22-1.81-1-4.15-1-3.21,0-5.15,2.4-5.15,5.73s2.03,5.77,5.39,5.77c2.34,0,3.53-.66,4.22-.97l.81,1.62Z"/>
  <path class="cls-1" d="m142.41,49.43h-2.56l6.52-14.82h1l5.8,14.82h-2.77l-1.4-3.68h-5.05l-1.53,3.68Zm4.15-9.98l-1.84,4.4h3.55l-1.71-4.4Z"/>
  <path class="cls-1" d="m159.54,47.83c1.4,0,2.56-.81,2.56-1.93,0-1.25-1.5-1.97-3.18-2.87-1.47-.78-3.84-2.03-3.84-4.68,0-2.12,1.9-3.99,4.68-3.99,1.97,0,3.27.47,4.09.87l-.72,1.69c-.78-.34-1.75-.65-3.34-.65-1.47,0-2.31.93-2.31,1.74,0,1.28,1.47,2.09,3.06,2.97,1.37.74,4.15,1.9,4.15,4.58,0,2.9-3.38,4.18-5.15,4.18-2.5,0-3.99-.84-4.84-1.25l.81-1.71c.69.31,2.09,1.06,4.02,1.06"/>
  <polygon class="cls-1" points="165.98 34.67 178.3 34.67 178.3 36.58 173.44 36.58 173.44 49.43 170.82 49.43 170.82 36.58 165.98 36.58 165.98 34.67"/>
  <polygon class="cls-1" points="183.13 47.52 188.77 47.52 188.77 49.43 180.51 49.43 180.51 34.67 183.13 34.67 183.13 47.52"/>
  <polygon class="cls-1" points="200 49.43 190.79 49.43 190.79 34.67 199.75 34.67 199.75 36.58 193.42 36.58 193.42 40.88 198.03 40.88 198.03 42.79 193.42 42.79 193.42 47.52 200 47.52 200 49.43"/>
  <path class="cls-1" d="m79.51,63.03h-1.24l3.14-7.14h.48l2.79,7.14h-1.34l-.67-1.78h-2.43l-.73,1.78Zm2-4.81l-.89,2.11h1.71l-.83-2.11Z"/>
  <path class="cls-1" d="m92.77,60.6c0,.96-.57,2.57-2.93,2.57-1.88,0-2.93-.92-2.93-2.57v-4.68h1.27v4.68c0,1.08.6,1.65,1.69,1.65,1.17,0,1.7-.78,1.7-1.65v-4.68h1.2v4.68Z"/>
  <path class="cls-1" d="m97.76,62.26c.68,0,1.23-.39,1.23-.94,0-.6-.72-.94-1.53-1.38-.7-.37-1.85-.98-1.85-2.25,0-1.02.92-1.92,2.25-1.92.95,0,1.58.23,1.97.42l-.35.81c-.37-.16-.84-.32-1.61-.32-.71,0-1.11.45-1.11.84,0,.62.7,1.01,1.47,1.42.66.36,2,.92,2,2.21,0,1.4-1.62,2.02-2.48,2.02-1.2,0-1.92-.41-2.33-.6l.39-.82c.33.15,1.01.51,1.94.51"/>
  <polygon class="cls-1" points="102.15 55.92 108.08 55.92 108.08 56.84 105.74 56.84 105.74 63.03 104.47 63.03 104.47 56.84 102.15 56.84 102.15 55.92"/>
  <path class="cls-1" d="m114.53,63.16l-1.97-3.27h-.8v3.14h-1.28v-7.11h2.18c1.76,0,2.43,1.06,2.43,1.8,0,1.04-.77,1.69-1.37,1.92l2.18,3.39-1.38.13Zm-2.24-4.19c.96-.01,1.53-.5,1.53-1.11s-.53-1.03-1.52-1.03h-.56v2.14h.54Z"/>
  <path class="cls-1" d="m118.7,63.03h-1.23l3.14-7.14h.48l2.79,7.14h-1.33l-.68-1.78h-2.43l-.73,1.78Zm1.99-4.81l-.88,2.11h1.71l-.83-2.11Z"/>
  <polygon class="cls-1" points="127.48 62.11 130.2 62.11 130.2 63.03 126.22 63.03 126.22 55.92 127.48 55.92 127.48 62.11"/>
  <rect class="cls-1" x="132.65" y="55.92" width="1" height="7.11"/>
  <path class="cls-1" d="m137.31,63.03h-1.23l3.14-7.14h.48l2.8,7.14h-1.34l-.67-1.78h-2.43l-.74,1.78Zm2-4.81l-.89,2.11h1.71l-.82-2.11Z"/>
</svg>