<?xml version="1.0" encoding="UTF-8"?>
<svg id="Layer_1" data-name="Layer 1" xmlns="http://www.w3.org/2000/svg" viewBox="0 0 200 200">
  <defs>
    <style>
      .cls-1 {
        stroke-width: 0px;
      }
    </style>
  </defs>
  <path class="cls-1" d="m0,127.07h9.76v1.51h-3.85v10.18h-2.08v-10.18H0v-1.51Z"/>
  <path class="cls-1" d="m21.3,133.49h-5.49v5.26h-2.08v-11.69h2.08v4.92h5.49v-4.92h2.07v11.69h-2.07v-5.26Z"/>
  <path class="cls-1" d="m35.91,138.76h-7.29v-11.69h7.09v1.51h-5.02v3.41h3.66v1.51h-3.66v3.76h5.21v1.51Z"/>
  <path class="cls-1" d="m58.72,134.78c0,1.58-.94,4.22-4.82,4.22-3.09,0-4.82-1.51-4.82-4.22v-7.71h2.07v7.71c0,1.78.99,2.72,2.79,2.72,1.93,0,2.79-1.29,2.79-2.72v-7.71h1.98v7.71Z"/>
  <path class="cls-1" d="m74.53,127.07v11.69h-1.86l-6.7-8.42v8.42h-1.97v-11.69h1.9l6.7,8.45v-8.45h1.93Z"/>
  <path class="cls-1" d="m79.92,138.76v-11.69h2.08v11.69h-2.08Z"/>
  <path class="cls-1" d="m91.06,138.86h-1.01l-3.98-11.79h2.1l2.62,8.01,2.8-8.01h1.93l-4.45,11.79Z"/>
  <path class="cls-1" d="m106.89,138.76h-7.28v-11.69h7.09v1.51h-5.02v3.41h3.66v1.51h-3.66v3.76h5.21v1.51Z"/>
  <path class="cls-1" d="m118.31,138.98l-3.24-5.39h-1.31v5.16h-2.1v-11.69h3.58c2.89,0,4.01,1.73,4.01,2.96,0,1.71-1.26,2.77-2.25,3.16l3.58,5.56-2.27.22Zm-3.68-6.89c1.58-.02,2.52-.84,2.52-1.83s-.86-1.7-2.49-1.7h-.91v3.54h.89Z"/>
  <path class="cls-1" d="m127.58,137.5c1.11,0,2.02-.65,2.02-1.53,0-.99-1.18-1.56-2.52-2.28-1.16-.62-3.04-1.6-3.04-3.7,0-1.68,1.51-3.17,3.71-3.17,1.56,0,2.6.37,3.24.69l-.57,1.33c-.62-.27-1.38-.52-2.64-.52-1.16,0-1.83.74-1.83,1.39,0,1.01,1.17,1.66,2.42,2.35,1.09.59,3.29,1.51,3.29,3.63,0,2.3-2.67,3.31-4.08,3.31-1.98,0-3.17-.67-3.83-.99l.64-1.36c.54.25,1.66.84,3.19.84Z"/>
  <path class="cls-1" d="m136.3,138.76v-11.69h2.08v11.69h-2.08Z"/>
  <path class="cls-1" d="m142.35,127.07h9.77v1.51h-3.86v10.18h-2.08v-10.18h-3.83v-1.51Z"/>
  <path class="cls-1" d="m165.14,127.07l-3.91,6.03v5.66h-2.08v-5.66l-4.01-6.03h2.2l2.96,4.6,2.8-4.6h2.03Z"/>
  <path class="cls-1" d="m188.62,132.9c0,3.78-2.77,6.1-6.13,6.1s-6.15-2.3-6.15-6.1c0-3.53,2.6-6.08,6.15-6.08,3.76,0,6.13,2.45,6.13,6.08Zm-10.01,0c0,2.77,1.56,4.6,3.88,4.6s3.86-1.83,3.86-4.6-1.53-4.57-3.86-4.57-3.88,1.83-3.88,4.57Z"/>
  <path class="cls-1" d="m192.89,138.76v-11.69h6.7v1.51h-4.62v3.41h3.26v1.51h-3.26v5.26h-2.08Z"/>
  <g>
    <path class="cls-1" d="m22.53,149.45v24.29h-3.85l-13.92-17.51v17.51H.65v-24.29h3.95l13.92,17.56v-17.56h4.01Z"/>
    <path class="cls-1" d="m43.35,173.74h-15.15v-24.29h14.74v3.14h-10.43v7.08h7.6v3.13h-7.6v7.81h10.84v3.13Z"/>
    <path class="cls-1" d="m56.24,173.95h-2.21l-8.27-24.5h4.47l5.6,17.1,3.59-10.07-2.31-7.04h4.42l5.39,16.64,5.8-16.64h4l-9.19,24.5h-2.21l-4.26-12.74-4.83,12.74Z"/>
    <path class="cls-1" d="m99.42,172.15c-1.69,1.08-4,2.11-8.83,2.11-8.53,0-13.04-6.42-13.04-12.69s4.52-12.63,13.04-12.63c4.78,0,7.29,1.44,8.32,1.9l-1.33,2.93c-.82-.36-2.98-1.64-6.83-1.64-5.29,0-8.47,3.96-8.47,9.45s3.34,9.5,8.88,9.5c3.85,0,5.81-1.08,6.94-1.59l1.33,2.67Z"/>
    <path class="cls-1" d="m105.2,173.74h-4.21l10.74-24.4h1.64l9.55,24.4h-4.57l-2.31-6.06h-8.32l-2.52,6.06Zm6.83-16.43l-3.03,7.24h5.85l-2.82-7.24Z"/>
    <path class="cls-1" d="m133.39,171.12c2.31,0,4.21-1.34,4.21-3.18,0-2.06-2.47-3.24-5.24-4.72-2.41-1.28-6.32-3.34-6.32-7.71,0-3.49,3.13-6.58,7.7-6.58,3.24,0,5.39.77,6.73,1.44l-1.18,2.77c-1.29-.56-2.88-1.08-5.5-1.08-2.41,0-3.8,1.54-3.8,2.88,0,2.11,2.42,3.44,5.04,4.88,2.26,1.23,6.83,3.13,6.83,7.55,0,4.78-5.55,6.88-8.47,6.88-4.11,0-6.57-1.39-7.96-2.06l1.34-2.82c1.13.51,3.44,1.75,6.63,1.75Z"/>
    <path class="cls-1" d="m143.99,149.45h20.28v3.14h-8.01v21.16h-4.31v-21.16h-7.96v-3.14Z"/>
    <path class="cls-1" d="m172.22,170.61h9.3v3.13h-13.61v-24.29h4.31v21.16Z"/>
    <path class="cls-1" d="m200,173.74h-15.15v-24.29h14.74v3.14h-10.42v7.08h7.6v3.13h-7.6v7.81h10.84v3.13Z"/>
  </g>
  <g>
    <path class="cls-1" d="m49.5,196.12h-2.03l5.16-11.74h.79l4.6,11.74h-2.2l-1.11-2.92h-4.01l-1.21,2.92Zm3.29-7.91l-1.46,3.49h2.82l-1.36-3.49Z"/>
    <path class="cls-1" d="m71.33,192.14c0,1.58-.94,4.23-4.82,4.23-3.09,0-4.82-1.51-4.82-4.23v-7.71h2.08v7.71c0,1.78.99,2.72,2.79,2.72,1.93,0,2.79-1.28,2.79-2.72v-7.71h1.98v7.71Z"/>
    <path class="cls-1" d="m79.54,194.86c1.11,0,2.03-.64,2.03-1.53,0-.99-1.19-1.56-2.52-2.28-1.16-.62-3.04-1.61-3.04-3.71,0-1.68,1.51-3.16,3.71-3.16,1.56,0,2.6.37,3.24.69l-.57,1.33c-.62-.27-1.38-.52-2.65-.52-1.16,0-1.83.74-1.83,1.39,0,1.01,1.16,1.65,2.42,2.34,1.09.59,3.29,1.51,3.29,3.64,0,2.3-2.67,3.31-4.08,3.31-1.98,0-3.16-.67-3.83-.99l.65-1.36c.54.25,1.66.84,3.19.84Z"/>
    <path class="cls-1" d="m86.76,184.43h9.76v1.51h-3.85v10.18h-2.08v-10.18h-3.83v-1.51Z"/>
    <path class="cls-1" d="m107.15,196.35l-3.24-5.39h-1.31v5.17h-2.1v-11.69h3.59c2.89,0,4,1.73,4,2.97,0,1.7-1.26,2.77-2.25,3.16l3.58,5.56-2.27.22Zm-3.69-6.9c1.58-.02,2.52-.84,2.52-1.83s-.87-1.71-2.49-1.71h-.92v3.53h.89Z"/>
    <path class="cls-1" d="m114.01,196.12h-2.03l5.17-11.74h.79l4.6,11.74h-2.2l-1.11-2.92h-4l-1.21,2.92Zm3.29-7.91l-1.46,3.49h2.82l-1.36-3.49Z"/>
    <path class="cls-1" d="m128.47,194.61h4.47v1.51h-6.55v-11.69h2.08v10.18Z"/>
    <path class="cls-1" d="m136.77,196.12v-11.69h2.07v11.69h-2.07Z"/>
    <path class="cls-1" d="m144.65,196.12h-2.03l5.17-11.74h.79l4.6,11.74h-2.2l-1.11-2.92h-4l-1.21,2.92Zm3.29-7.91l-1.46,3.49h2.82l-1.36-3.49Z"/>
  </g>
  <path class="cls-1" d="m92.31,5.87s.04.02.04.04-.02.04-.04.05c-15.38,5.38-20.26,24.09-20.26,24.09,0,.03,0,.05.03.07.03.02.07.01.1-.02C100.01-6.34,125.93,5.45,125.93,5.45c.05.01.08.06.06.11,0,.04-.05.07-.08.06-.5-.05-8.16-.66-10.72,6.41l38.64,43.14c0,1.26-.48,2.37-1.26,3.35-.4-.59-2.06-1.36-3.16-1.72-1.51-.49-2.92-.73-2.92-1.86,0-.82.71-1.04,1.09-1.04.33,0,.52.16.52.16,0,0,.02,0,.02,0,0,0,.01-.02,0-.02,0,0-.26-.57-1.03-.59-.75-.02-1.95.52-2.02,1.94-.05,1.17.51,1.81,1.36,2.4.84.58,2.5,1.33,2.5,2.56s-.94,1.52-1.15,1.62c-.41.2-3.91,1.78-7.34,2.42-.17-.6-.18-2.59-3.7-6.11-6.81-6.81-31.12-1.11-31.12-17.87,0-7.73,7.34-10.81,11.54-10.58,3.56.2,5.06,1.29,5.33,1.46.02.01.05.01.07,0,.04-.02.05-.07.03-.1,0,0-2.67-5.87-10.25-5.87-8.39,0-20.17,6.14-20.17,19.53,0,27.81,38.96,26.06,38.96,49.56,0,9.17-5.39,13.85-12.16,16.26,0,0,3.24-2.29,3.24-6.66,0-19.88-46.06-15.61-46.06-37.44,0-8.5,7.25-11.58,9.11-11.58.04,0,.08-.04.08-.08,0-.03-.02-.05-.04-.06-.23-.14-1.4-.76-3.61-.76-5.77,0-16.76,5.19-16.76,18.41,0,15.74,20.48,25.64,20.48,33.24,0,3.31-2.08,5.55-2.08,5.55-16.82-5.37-38.32-22.24-38.32-52.31,0-36.38,33.97-53.11,47.29-53.11"/>
</svg>