<?xml version="1.0" encoding="UTF-8"?>
<svg id="Layer_1" data-name="Layer 1" xmlns="http://www.w3.org/2000/svg" viewBox="0 0 120 120">
  <defs>
    <style>
      .cls-1 {
        fill: #fff;
        stroke-width: 0px;
      }
    </style>
  </defs>
  <path class="cls-1" d="m0,76.24h5.86v.9h-2.31v6.11h-1.25v-6.11H0v-.9Z"/>
  <path class="cls-1" d="m12.78,80.1h-3.29v3.16h-1.25v-7.01h1.25v2.95h3.29v-2.95h1.24v7.01h-1.24v-3.16Z"/>
  <path class="cls-1" d="m21.55,83.25h-4.38v-7.01h4.26v.9h-3.01v2.05h2.19v.9h-2.19v2.25h3.13v.9Z"/>
  <path class="cls-1" d="m35.23,80.87c0,.95-.56,2.53-2.89,2.53-1.85,0-2.89-.9-2.89-2.53v-4.63h1.24v4.63c0,1.07.59,1.63,1.68,1.63,1.16,0,1.68-.77,1.68-1.63v-4.63h1.19v4.63Z"/>
  <path class="cls-1" d="m44.72,76.24v7.01h-1.11l-4.02-5.05v5.05h-1.18v-7.01h1.14l4.02,5.07v-5.07h1.16Z"/>
  <path class="cls-1" d="m47.95,83.25v-7.01h1.25v7.01h-1.25Z"/>
  <path class="cls-1" d="m54.63,83.31h-.61l-2.39-7.07h1.26l1.57,4.8,1.68-4.8h1.16l-2.67,7.07Z"/>
  <path class="cls-1" d="m64.14,83.25h-4.37v-7.01h4.25v.9h-3.01v2.05h2.19v.9h-2.19v2.25h3.13v.9Z"/>
  <path class="cls-1" d="m70.99,83.39l-1.94-3.23h-.79v3.1h-1.26v-7.01h2.15c1.74,0,2.4,1.04,2.4,1.78,0,1.02-.76,1.66-1.35,1.9l2.15,3.34-1.36.13Zm-2.21-4.14c.95-.01,1.51-.51,1.51-1.1s-.52-1.02-1.5-1.02h-.55v2.12h.53Z"/>
  <path class="cls-1" d="m76.55,82.5c.67,0,1.21-.39,1.21-.92,0-.59-.71-.93-1.51-1.37-.7-.37-1.82-.96-1.82-2.22,0-1.01.9-1.9,2.22-1.9.93,0,1.56.22,1.94.42l-.34.8c-.37-.16-.83-.31-1.59-.31-.7,0-1.1.45-1.1.83,0,.61.7.99,1.45,1.41.65.35,1.97.9,1.97,2.18,0,1.38-1.6,1.99-2.45,1.99-1.19,0-1.9-.4-2.3-.59l.38-.82c.33.15.99.51,1.92.51Z"/>
  <path class="cls-1" d="m81.78,83.25v-7.01h1.25v7.01h-1.25Z"/>
  <path class="cls-1" d="m85.41,76.24h5.86v.9h-2.31v6.11h-1.25v-6.11h-2.3v-.9Z"/>
  <path class="cls-1" d="m99.09,76.24l-2.34,3.62v3.39h-1.25v-3.39l-2.4-3.62h1.32l1.78,2.76,1.68-2.76h1.22Z"/>
  <path class="cls-1" d="m113.17,79.74c0,2.27-1.66,3.66-3.68,3.66s-3.69-1.38-3.69-3.66c0-2.12,1.56-3.65,3.69-3.65,2.25,0,3.68,1.47,3.68,3.65Zm-6.01,0c0,1.66.94,2.76,2.33,2.76s2.31-1.1,2.31-2.76-.92-2.74-2.31-2.74-2.33,1.1-2.33,2.74Z"/>
  <path class="cls-1" d="m115.73,83.25v-7.01h4.02v.9h-2.77v2.05h1.96v.9h-1.96v3.16h-1.25Z"/>
  <g>
    <path class="cls-1" d="m13.52,89.67v14.58h-2.31l-8.35-10.51v10.51H.39v-14.58h2.37l8.35,10.54v-10.54h2.4Z"/>
    <path class="cls-1" d="m26.01,104.24h-9.09v-14.58h8.84v1.88h-6.26v4.25h4.56v1.88h-4.56v4.68h6.5v1.88Z"/>
    <path class="cls-1" d="m33.74,104.37h-1.33l-4.96-14.7h2.68l3.36,10.26,2.16-6.04-1.39-4.22h2.65l3.24,9.98,3.48-9.98h2.4l-5.52,14.7h-1.32l-2.56-7.64-2.9,7.64Z"/>
    <path class="cls-1" d="m59.65,103.29c-1.02.65-2.4,1.26-5.3,1.26-5.12,0-7.82-3.85-7.82-7.61s2.71-7.58,7.82-7.58c2.87,0,4.38.86,4.99,1.14l-.8,1.76c-.49-.22-1.79-.99-4.1-.99-3.17,0-5.08,2.37-5.08,5.67s2,5.7,5.33,5.7c2.31,0,3.48-.65,4.16-.95l.8,1.6Z"/>
    <path class="cls-1" d="m63.12,104.24h-2.53l6.44-14.64h.98l5.73,14.64h-2.74l-1.39-3.64h-4.99l-1.51,3.64Zm4.1-9.86l-1.82,4.35h3.51l-1.69-4.35Z"/>
    <path class="cls-1" d="m80.04,102.67c1.39,0,2.53-.8,2.53-1.91,0-1.23-1.48-1.94-3.14-2.83-1.45-.77-3.79-2-3.79-4.62,0-2.09,1.88-3.95,4.62-3.95,1.94,0,3.23.46,4.04.86l-.71,1.66c-.77-.34-1.73-.65-3.3-.65-1.45,0-2.28.92-2.28,1.73,0,1.26,1.45,2.06,3.02,2.93,1.36.74,4.1,1.88,4.1,4.53,0,2.87-3.33,4.13-5.08,4.13-2.47,0-3.94-.83-4.78-1.23l.8-1.69c.68.31,2.07,1.05,3.98,1.05Z"/>
    <path class="cls-1" d="m86.4,89.67h12.17v1.88h-4.81v12.69h-2.59v-12.69h-4.78v-1.88Z"/>
    <path class="cls-1" d="m103.33,102.36h5.58v1.88h-8.17v-14.58h2.59v12.7Z"/>
    <path class="cls-1" d="m120,104.24h-9.09v-14.58h8.84v1.88h-6.25v4.25h4.56v1.88h-4.56v4.68h6.5v1.88Z"/>
  </g>
  <g>
    <path class="cls-1" d="m29.7,117.67h-1.22l3.1-7.04h.48l2.76,7.04h-1.32l-.67-1.75h-2.4l-.73,1.75Zm1.97-4.75l-.88,2.09h1.69l-.82-2.09Z"/>
    <path class="cls-1" d="m42.8,115.29c0,.95-.56,2.54-2.89,2.54-1.85,0-2.89-.91-2.89-2.54v-4.63h1.25v4.63c0,1.07.59,1.63,1.68,1.63,1.16,0,1.68-.77,1.68-1.63v-4.63h1.19v4.63Z"/>
    <path class="cls-1" d="m47.72,116.92c.67,0,1.22-.39,1.22-.92,0-.59-.71-.94-1.51-1.37-.7-.37-1.83-.96-1.83-2.22,0-1.01.91-1.9,2.23-1.9.93,0,1.56.22,1.94.42l-.34.8c-.37-.16-.83-.31-1.59-.31-.7,0-1.1.44-1.1.83,0,.61.69.99,1.45,1.41.65.36,1.97.91,1.97,2.18,0,1.38-1.6,1.99-2.45,1.99-1.19,0-1.9-.4-2.3-.59l.39-.82c.33.15.99.5,1.91.5Z"/>
    <path class="cls-1" d="m52.06,110.66h5.86v.9h-2.31v6.11h-1.25v-6.11h-2.3v-.9Z"/>
    <path class="cls-1" d="m64.29,117.81l-1.94-3.23h-.79v3.1h-1.26v-7.01h2.15c1.73,0,2.4,1.04,2.4,1.78,0,1.02-.76,1.66-1.35,1.9l2.15,3.34-1.36.13Zm-2.21-4.14c.95-.01,1.51-.5,1.51-1.1s-.52-1.02-1.5-1.02h-.55v2.12h.53Z"/>
    <path class="cls-1" d="m68.41,117.67h-1.22l3.1-7.04h.47l2.76,7.04h-1.32l-.67-1.75h-2.4l-.73,1.75Zm1.97-4.75l-.88,2.09h1.69l-.81-2.09Z"/>
    <path class="cls-1" d="m77.08,116.77h2.68v.91h-3.93v-7.01h1.25v6.11Z"/>
    <path class="cls-1" d="m82.06,117.67v-7.01h1.24v7.01h-1.24Z"/>
    <path class="cls-1" d="m86.79,117.67h-1.22l3.1-7.04h.47l2.76,7.04h-1.32l-.67-1.75h-2.4l-.73,1.75Zm1.97-4.75l-.88,2.09h1.69l-.82-2.09Z"/>
  </g>
  <path class="cls-1" d="m55.39,3.52s.03.01.03.03-.01.02-.03.03c-9.23,3.23-12.15,14.46-12.15,14.46,0,.02,0,.03.02.04.02.01.04,0,.06,0C60-3.81,75.56,3.27,75.56,3.27c.03,0,.05.03.04.06,0,.02-.03.04-.05.04-.3-.03-4.9-.4-6.43,3.85l23.18,25.88c0,.75-.29,1.42-.76,2.01-.24-.35-1.24-.82-1.9-1.03-.91-.29-1.75-.44-1.75-1.11,0-.49.43-.62.65-.62.2,0,.31.09.31.09,0,0,0,0,.01,0,0,0,0,0,0-.01,0,0-.16-.34-.62-.35-.45-.01-1.17.31-1.21,1.16-.03.7.3,1.09.82,1.44.51.35,1.5.8,1.5,1.54s-.57.91-.69.97c-.25.12-2.35,1.07-4.4,1.45-.1-.36-.11-1.56-2.22-3.67-4.09-4.09-18.67-.67-18.67-10.72,0-4.64,4.41-6.49,6.93-6.35,2.14.12,3.04.77,3.2.88.01,0,.03,0,.04,0,.02-.01.03-.04.02-.06,0,0-1.6-3.52-6.15-3.52-5.03,0-12.1,3.68-12.1,11.72,0,16.68,23.38,15.64,23.38,29.74,0,5.5-3.23,8.31-7.3,9.76,0,0,1.95-1.38,1.95-3.99,0-11.93-27.63-9.37-27.63-22.47,0-5.1,4.35-6.95,5.47-6.95.03,0,.05-.02.05-.05,0-.02,0-.03-.02-.04-.14-.08-.84-.45-2.17-.45-3.46,0-10.06,3.12-10.06,11.05,0,9.44,12.29,15.38,12.29,19.94,0,1.99-1.25,3.33-1.25,3.33-10.09-3.22-22.99-13.34-22.99-31.39,0-21.83,20.38-31.87,28.38-31.87"/>
</svg>