<?xml version="1.0" encoding="UTF-8"?>
<svg id="Layer_1" data-name="Layer 1" xmlns="http://www.w3.org/2000/svg" viewBox="0 0 300 300">
  <defs>
    <style>
      .cls-1 {
        fill: #fff;
        stroke-width: 0px;
      }
    </style>
  </defs>
  <path class="cls-1" d="m0,190.6h14.65v2.26h-5.78v15.27h-3.12v-15.27H0v-2.26Z"/>
  <path class="cls-1" d="m31.95,200.24h-8.23v7.89h-3.11v-17.53h3.11v7.37h8.23v-7.37h3.11v17.53h-3.11v-7.89Z"/>
  <path class="cls-1" d="m53.87,208.13h-10.94v-17.53h10.64v2.26h-7.53v5.12h5.49v2.26h-5.49v5.64h7.82v2.26Z"/>
  <path class="cls-1" d="m88.09,202.17c0,2.37-1.41,6.34-7.23,6.34-4.63,0-7.23-2.26-7.23-6.34v-11.57h3.11v11.57c0,2.67,1.48,4.08,4.19,4.08,2.89,0,4.19-1.93,4.19-4.08v-11.57h2.96v11.57Z"/>
  <path class="cls-1" d="m111.79,190.6v17.53h-2.79l-10.05-12.64v12.64h-2.96v-17.53h2.85l10.05,12.68v-12.68h2.9Z"/>
  <path class="cls-1" d="m119.87,208.13v-17.53h3.11v17.53h-3.11Z"/>
  <path class="cls-1" d="m136.59,208.28h-1.52l-5.97-17.68h3.15l3.93,12.01,4.19-12.01h2.89l-6.67,17.68Z"/>
  <path class="cls-1" d="m160.34,208.13h-10.93v-17.53h10.63v2.26h-7.52v5.12h5.49v2.26h-5.49v5.64h7.82v2.26Z"/>
  <path class="cls-1" d="m177.47,208.47l-4.85-8.08h-1.97v7.74h-3.15v-17.53h5.38c4.34,0,6.01,2.59,6.01,4.45,0,2.56-1.89,4.15-3.37,4.75l5.37,8.34-3.41.34Zm-5.53-10.34c2.37-.04,3.78-1.26,3.78-2.75s-1.3-2.56-3.74-2.56h-1.37v5.3h1.33Z"/>
  <path class="cls-1" d="m191.37,206.25c1.66,0,3.03-.97,3.03-2.3,0-1.48-1.78-2.34-3.78-3.41-1.75-.93-4.56-2.41-4.56-5.56,0-2.52,2.26-4.75,5.56-4.75,2.33,0,3.89.56,4.85,1.04l-.85,2c-.93-.41-2.07-.78-3.96-.78-1.74,0-2.75,1.11-2.75,2.08,0,1.52,1.75,2.48,3.64,3.52,1.63.89,4.93,2.26,4.93,5.45,0,3.45-4.01,4.97-6.11,4.97-2.97,0-4.75-1-5.75-1.48l.96-2.04c.82.38,2.48,1.27,4.79,1.27Z"/>
  <path class="cls-1" d="m204.45,208.13v-17.53h3.12v17.53h-3.12Z"/>
  <path class="cls-1" d="m213.52,190.6h14.65v2.26h-5.78v15.27h-3.11v-15.27h-5.75v-2.26Z"/>
  <path class="cls-1" d="m247.71,190.6l-5.86,9.04v8.49h-3.12v-8.49l-6.01-9.04h3.3l4.45,6.89,4.19-6.89h3.04Z"/>
  <path class="cls-1" d="m282.93,199.35c0,5.67-4.15,9.16-9.2,9.16s-9.23-3.45-9.23-9.16c0-5.3,3.89-9.12,9.23-9.12,5.63,0,9.2,3.67,9.2,9.12Zm-15.02,0c0,4.15,2.34,6.9,5.82,6.9s5.78-2.75,5.78-6.9-2.3-6.86-5.78-6.86-5.82,2.75-5.82,6.86Z"/>
  <path class="cls-1" d="m289.33,208.13v-17.53h10.05v2.26h-6.93v5.12h4.89v2.26h-4.89v7.89h-3.11Z"/>
  <g>
    <path class="cls-1" d="m33.79,224.17v36.44h-5.78l-20.88-26.27v26.27H.97v-36.44h5.93l20.88,26.35v-26.35h6.01Z"/>
    <path class="cls-1" d="m65.02,260.61h-22.73v-36.44h22.11v4.7h-15.64v10.63h11.4v4.7h-11.4v11.71h16.26v4.7Z"/>
    <path class="cls-1" d="m84.36,260.92h-3.31l-12.4-36.75h6.7l8.4,25.65,5.39-15.1-3.47-10.55h6.62l8.09,24.96,8.71-24.96h6.01l-13.79,36.75h-3.31l-6.39-19.1-7.24,19.1Z"/>
    <path class="cls-1" d="m149.13,258.22c-2.54,1.61-6.01,3.16-13.25,3.16-12.79,0-19.56-9.63-19.56-19.03s6.77-18.95,19.56-18.95c7.17,0,10.94,2.16,12.48,2.86l-2,4.39c-1.23-.54-4.47-2.47-10.25-2.47-7.93,0-12.71,5.93-12.71,14.17s5.01,14.25,13.32,14.25c5.78,0,8.71-1.62,10.4-2.38l2,4.01Z"/>
    <path class="cls-1" d="m157.8,260.61h-6.32l16.11-36.59h2.46l14.33,36.59h-6.86l-3.46-9.09h-12.48l-3.78,9.09Zm10.25-24.65l-4.54,10.86h8.78l-4.24-10.86Z"/>
    <path class="cls-1" d="m200.09,256.68c3.47,0,6.32-2,6.32-4.78,0-3.08-3.7-4.85-7.86-7.09-3.62-1.93-9.48-5.01-9.48-11.56,0-5.24,4.7-9.86,11.56-9.86,4.85,0,8.08,1.16,10.09,2.16l-1.77,4.16c-1.93-.84-4.31-1.62-8.24-1.62-3.62,0-5.7,2.31-5.7,4.31,0,3.16,3.62,5.16,7.55,7.32,3.39,1.85,10.24,4.7,10.24,11.32,0,7.16-8.32,10.32-12.71,10.32-6.17,0-9.86-2.08-11.94-3.08l2.01-4.23c1.69.77,5.16,2.62,9.94,2.62Z"/>
    <path class="cls-1" d="m215.99,224.17h30.42v4.7h-12.01v31.73h-6.47v-31.73h-11.94v-4.7Z"/>
    <path class="cls-1" d="m258.33,255.91h13.94v4.7h-20.41v-36.44h6.47v31.74Z"/>
    <path class="cls-1" d="m300,260.61h-22.73v-36.44h22.11v4.7h-15.64v10.63h11.4v4.7h-11.4v11.71h16.26v4.7Z"/>
  </g>
  <g>
    <path class="cls-1" d="m74.25,294.18h-3.04l7.75-17.61h1.19l6.9,17.61h-3.3l-1.67-4.37h-6.01l-1.81,4.37Zm4.93-11.87l-2.19,5.23h4.23l-2.04-5.23Z"/>
    <path class="cls-1" d="m106.99,288.21c0,2.37-1.41,6.34-7.23,6.34-4.64,0-7.23-2.26-7.23-6.34v-11.57h3.12v11.57c0,2.67,1.48,4.08,4.19,4.08,2.89,0,4.19-1.93,4.19-4.08v-11.57h2.96v11.57Z"/>
    <path class="cls-1" d="m119.31,292.29c1.67,0,3.04-.96,3.04-2.3,0-1.49-1.78-2.34-3.78-3.41-1.75-.92-4.56-2.41-4.56-5.56,0-2.52,2.26-4.74,5.56-4.74,2.34,0,3.89.55,4.86,1.04l-.85,2c-.93-.4-2.08-.78-3.97-.78-1.74,0-2.74,1.11-2.74,2.08,0,1.52,1.74,2.48,3.63,3.52,1.63.89,4.93,2.27,4.93,5.45,0,3.45-4,4.97-6.12,4.97-2.96,0-4.75-1-5.75-1.49l.97-2.04c.82.37,2.48,1.26,4.78,1.26Z"/>
    <path class="cls-1" d="m130.15,276.65h14.64v2.26h-5.78v15.27h-3.12v-15.27h-5.75v-2.26Z"/>
    <path class="cls-1" d="m160.72,294.52l-4.86-8.09h-1.96v7.75h-3.15v-17.54h5.38c4.34,0,6,2.6,6,4.45,0,2.56-1.89,4.15-3.37,4.74l5.37,8.34-3.41.34Zm-5.53-10.35c2.37-.04,3.78-1.26,3.78-2.74s-1.3-2.56-3.74-2.56h-1.37v5.3h1.33Z"/>
    <path class="cls-1" d="m171.02,294.18h-3.04l7.75-17.61h1.18l6.9,17.61h-3.3l-1.67-4.37h-6l-1.82,4.37Zm4.93-11.87l-2.19,5.23h4.23l-2.04-5.23Z"/>
    <path class="cls-1" d="m192.71,291.92h6.71v2.26h-9.83v-17.54h3.12v15.27Z"/>
    <path class="cls-1" d="m205.15,294.18v-17.54h3.11v17.54h-3.11Z"/>
    <path class="cls-1" d="m216.97,294.18h-3.04l7.75-17.61h1.19l6.9,17.61h-3.3l-1.67-4.37h-6.01l-1.82,4.37Zm4.93-11.87l-2.19,5.23h4.23l-2.04-5.23Z"/>
  </g>
  <path class="cls-1" d="m138.47,8.8s.07.03.07.07-.03.05-.06.07c-23.06,8.06-30.39,36.14-30.39,36.14,0,.04,0,.08.04.11.05.03.11.02.15-.02C150.01-9.52,188.89,8.17,188.89,8.17c.07.02.11.09.09.16-.01.06-.07.1-.13.1-.74-.07-12.24-.99-16.08,9.62l57.95,64.71c0,1.88-.72,3.56-1.89,5.02-.6-.88-3.09-2.05-4.74-2.58-2.27-.73-4.38-1.1-4.38-2.79,0-1.22,1.07-1.55,1.63-1.55.49,0,.77.23.77.23,0,.01.02.01.03,0,.01-.01.02-.02,0-.04,0,0-.39-.86-1.55-.88-1.13-.03-2.92.78-3.03,2.91-.08,1.76.76,2.72,2.04,3.6,1.26.87,3.75,1.99,3.75,3.84s-1.41,2.28-1.73,2.43c-.62.3-5.86,2.66-11.01,3.63-.26-.9-.27-3.89-5.55-9.17-10.22-10.22-46.67-1.67-46.67-26.81,0-11.6,11.01-16.22,17.32-15.88,5.34.29,7.59,1.93,7.99,2.19.03.02.08.02.11,0,.06-.03.07-.1.04-.16,0,0-4-8.8-15.37-8.8-12.58,0-30.25,9.21-30.25,29.3,0,41.71,58.44,39.09,58.44,74.34,0,13.75-8.08,20.78-18.25,24.39,0,0,4.86-3.44,4.86-9.99,0-29.82-69.08-23.41-69.08-56.17,0-12.75,10.88-17.37,13.67-17.37.06,0,.12-.05.12-.11,0-.04-.02-.08-.06-.1-.34-.21-2.1-1.13-5.41-1.13-8.65,0-25.14,7.79-25.14,27.61,0,23.61,30.71,38.46,30.71,49.86,0,4.97-3.12,8.33-3.12,8.33-25.23-8.05-57.48-33.35-57.48-78.47,0-54.57,50.96-79.67,70.94-79.67"/>
</svg>