<?xml version="1.0" encoding="UTF-8"?>
<svg id="Layer_1" data-name="Layer 1" xmlns="http://www.w3.org/2000/svg" viewBox="0 0 120 45">
  <defs>
    <style>
      .cls-1 {
        stroke-width: 0px;
      }
    </style>
  </defs>
  <path class="cls-1" d="m18.56,2.26s.02,0,.02.02c0,0,0,.01-.02.01-6.03,2.11-7.95,9.46-7.95,9.46,0,0,0,.02.01.03.01,0,.03,0,.04,0C21.58-2.53,31.75,2.09,31.75,2.09c.02,0,.03.02.02.04,0,.02-.02.03-.03.03-.19-.02-3.2-.26-4.21,2.52l15.16,16.92c0,.49-.19.93-.49,1.31-.16-.23-.81-.54-1.24-.67-.59-.19-1.14-.29-1.14-.73,0-.32.28-.41.43-.41.13,0,.2.06.2.06,0,0,0,0,0,0,0,0,0,0,0,0,0,0-.1-.23-.4-.23-.29,0-.76.2-.79.76-.02.46.2.71.53.94.33.23.98.52.98,1.01s-.37.6-.45.64c-.16.08-1.53.69-2.88.95-.07-.24-.08-1.01-1.45-2.4-2.95-3.01-12.13-.19-12.13-7.09,0-3.15,2.98-4.07,4.45-4.07,1.23,0,1.99.51,2.09.57,0,0,.02,0,.03,0,.01,0,.02-.03,0-.04,0,0-1.05-2.3-4.02-2.3-3.29,0-7.91,2.41-7.91,7.66,0,10.91,15.28,10.23,15.28,19.45,0,3.6-2.11,5.43-4.77,6.38,0,0,1.27-.9,1.27-2.61,0-7.8-18.07-6.12-18.07-14.69,0-3.34,2.85-4.54,3.58-4.54.02,0,.03-.01.03-.03,0,0,0-.02-.02-.03-.09-.05-.55-.3-1.42-.3-2.26,0-6.58,2.04-6.58,7.22,0,6.17,8.03,10.06,8.03,13.04,0,1.3-.82,2.18-.82,2.18C8.43,41.52,0,34.9,0,23.1,0,8.82,13.33,2.26,18.56,2.26"/>
  <polygon class="cls-1" points="47.11 12.65 50.67 12.65 50.67 13.19 49.26 13.19 49.26 16.9 48.51 16.9 48.51 13.19 47.11 13.19 47.11 12.65"/>
  <polygon class="cls-1" points="54.87 14.99 52.87 14.99 52.87 16.9 52.11 16.9 52.11 12.65 52.87 12.65 52.87 14.44 54.87 14.44 54.87 12.65 55.63 12.65 55.63 16.9 54.87 16.9 54.87 14.99"/>
  <polygon class="cls-1" points="60.2 16.9 57.54 16.9 57.54 12.65 60.12 12.65 60.12 13.19 58.3 13.19 58.3 14.44 59.63 14.44 59.63 14.99 58.3 14.99 58.3 16.35 60.2 16.35 60.2 16.9"/>
  <path class="cls-1" d="m68.51,15.46c0,.58-.34,1.54-1.76,1.54-1.13,0-1.76-.55-1.76-1.54v-2.81h.76v2.81c0,.65.36.99,1.02.99.7,0,1.02-.47,1.02-.99v-2.81h.72v2.81Z"/>
  <polygon class="cls-1" points="74.27 12.65 74.27 16.9 73.59 16.9 71.15 13.84 71.15 16.9 70.43 16.9 70.43 12.65 71.12 12.65 73.57 15.73 73.57 12.65 74.27 12.65"/>
  <rect class="cls-1" x="76.31" y="12.65" width=".6" height="4.26"/>
  <polygon class="cls-1" points="80.29 16.94 79.93 16.94 78.47 12.65 79.24 12.65 80.19 15.56 81.21 12.65 81.92 12.65 80.29 16.94"/>
  <polygon class="cls-1" points="86.07 16.9 83.41 16.9 83.41 12.65 85.99 12.65 85.99 13.19 84.16 13.19 84.16 14.44 85.5 14.44 85.5 14.99 84.16 14.99 84.16 16.35 86.07 16.35 86.07 16.9"/>
  <path class="cls-1" d="m90.23,16.99l-1.18-1.96h-.48v1.88h-.77v-4.26h1.3c1.06,0,1.46.63,1.46,1.08,0,.62-.46,1.01-.82,1.15l1.31,2.03-.83.08Zm-1.34-2.51c.58-.01.92-.31.92-.67s-.31-.62-.91-.62h-.33v1.29h.32Z"/>
  <path class="cls-1" d="m93.61,16.45c.4,0,.74-.23.74-.56,0-.36-.43-.57-.92-.83-.42-.23-1.11-.59-1.11-1.35,0-.61.55-1.15,1.35-1.15.57,0,.95.13,1.18.26l-.21.48c-.22-.1-.5-.19-.96-.19-.42,0-.67.27-.67.5,0,.37.42.6.88.85.4.22,1.2.55,1.2,1.32,0,.84-.97,1.21-1.48,1.21-.72,0-1.15-.24-1.4-.36l.23-.5c.2.09.6.31,1.17.31"/>
  <rect class="cls-1" x="96.86" y="12.65" width=".6" height="4.26"/>
  <polygon class="cls-1" points="98.99 12.65 102.55 12.65 102.55 13.19 101.14 13.19 101.14 16.9 100.39 16.9 100.39 13.19 98.99 13.19 98.99 12.65"/>
  <polygon class="cls-1" points="107.29 12.65 105.87 14.84 105.87 16.9 105.11 16.9 105.11 14.84 103.65 12.65 104.46 12.65 105.54 14.32 106.56 12.65 107.29 12.65"/>
  <path class="cls-1" d="m115.85,14.77c0,1.38-1.01,2.23-2.23,2.23s-2.25-.84-2.25-2.23c0-1.29.95-2.22,2.25-2.22,1.37,0,2.23.89,2.23,2.22m-3.65,0c0,1.01.57,1.68,1.42,1.68s1.4-.67,1.4-1.68-.56-1.67-1.4-1.67-1.42.67-1.42,1.67"/>
  <polygon class="cls-1" points="117.41 16.9 117.41 12.65 119.85 12.65 119.85 13.19 118.17 13.19 118.17 14.44 119.35 14.44 119.35 14.99 118.17 14.99 118.17 16.9 117.41 16.9"/>
  <polygon class="cls-1" points="55.32 20.8 55.32 29.66 53.91 29.66 48.84 23.27 48.84 29.66 47.34 29.66 47.34 20.8 48.78 20.8 53.86 27.2 53.86 20.8 55.32 20.8"/>
  <polygon class="cls-1" points="62.91 29.66 57.38 29.66 57.38 20.8 62.76 20.8 62.76 21.95 58.95 21.95 58.95 24.53 61.73 24.53 61.73 25.67 58.95 25.67 58.95 28.51 62.91 28.51 62.91 29.66"/>
  <polygon class="cls-1" points="67.61 29.73 66.8 29.73 63.79 20.8 65.41 20.8 67.45 27.03 68.77 23.37 67.92 20.8 69.53 20.8 71.5 26.87 73.61 20.8 75.07 20.8 71.72 29.73 70.91 29.73 69.36 25.09 67.61 29.73"/>
  <path class="cls-1" d="m83.34,29.07c-.62.39-1.46.77-3.22.77-3.11,0-4.75-2.34-4.75-4.63s1.65-4.6,4.75-4.6c1.74,0,2.66.52,3.03.69l-.49,1.07c-.3-.13-1.09-.6-2.49-.6-1.93,0-3.09,1.44-3.09,3.44s1.22,3.46,3.24,3.46c1.4,0,2.12-.39,2.53-.58l.49.97Z"/>
  <path class="cls-1" d="m85.45,29.66h-1.54l3.91-8.89h.6l3.48,8.89h-1.66l-.84-2.21h-3.03l-.92,2.21Zm2.49-5.99l-1.11,2.64h2.13l-1.03-2.64Z"/>
  <path class="cls-1" d="m95.72,28.7c.84,0,1.53-.49,1.53-1.16,0-.75-.9-1.18-1.91-1.72-.88-.47-2.3-1.22-2.3-2.81,0-1.27,1.14-2.4,2.81-2.4,1.18,0,1.96.28,2.45.52l-.43,1.01c-.47-.2-1.05-.39-2-.39-.88,0-1.39.56-1.39,1.05,0,.77.88,1.26,1.84,1.78.82.45,2.49,1.14,2.49,2.75,0,1.74-2.03,2.51-3.09,2.51-1.5,0-2.4-.5-2.9-.75l.49-1.03c.41.19,1.26.63,2.41.63"/>
  <polygon class="cls-1" points="99.59 20.8 106.98 20.8 106.98 21.95 104.06 21.95 104.06 29.66 102.49 29.66 102.49 21.95 99.59 21.95 99.59 20.8"/>
  <polygon class="cls-1" points="109.88 28.51 113.26 28.51 113.26 29.66 108.31 29.66 108.31 20.8 109.88 20.8 109.88 28.51"/>
  <polygon class="cls-1" points="120 29.66 114.48 29.66 114.48 20.8 119.85 20.8 119.85 21.95 116.05 21.95 116.05 24.53 118.82 24.53 118.82 25.67 116.05 25.67 116.05 28.51 120 28.51 120 29.66"/>
  <path class="cls-1" d="m47.71,37.82h-.74l1.88-4.28h.29l1.68,4.28h-.8l-.4-1.07h-1.46l-.44,1.07Zm1.2-2.89l-.53,1.27h1.03l-.5-1.27Z"/>
  <path class="cls-1" d="m55.66,36.36c0,.58-.34,1.54-1.76,1.54-1.13,0-1.76-.55-1.76-1.54v-2.81h.76v2.81c0,.65.36.99,1.02.99.7,0,1.02-.47,1.02-.99v-2.81h.72v2.81Z"/>
  <path class="cls-1" d="m58.66,37.36c.41,0,.74-.24.74-.56,0-.36-.43-.56-.92-.83-.42-.22-1.11-.59-1.11-1.35,0-.61.55-1.15,1.35-1.15.57,0,.95.14,1.18.25l-.21.49c-.22-.1-.51-.19-.96-.19-.42,0-.67.27-.67.5,0,.37.42.61.88.85.4.22,1.2.55,1.2,1.32,0,.84-.97,1.21-1.49,1.21-.72,0-1.15-.24-1.4-.36l.23-.49c.2.09.6.31,1.16.31"/>
  <polygon class="cls-1" points="61.29 33.55 64.85 33.55 64.85 34.1 63.44 34.1 63.44 37.82 62.68 37.82 62.68 34.1 61.29 34.1 61.29 33.55"/>
  <path class="cls-1" d="m68.72,37.9l-1.18-1.96h-.48v1.89h-.77v-4.27h1.31c1.05,0,1.46.63,1.46,1.08,0,.62-.46,1.01-.82,1.15l1.31,2.03-.83.08Zm-1.34-2.52c.58,0,.92-.3.92-.66s-.32-.62-.91-.62h-.33v1.29h.32Z"/>
  <path class="cls-1" d="m71.22,37.82h-.74l1.88-4.28h.29l1.68,4.28h-.8l-.41-1.07h-1.46l-.44,1.07Zm1.2-2.89l-.53,1.27h1.03l-.5-1.27Z"/>
  <polygon class="cls-1" points="76.49 37.27 78.12 37.27 78.12 37.82 75.73 37.82 75.73 33.55 76.49 33.55 76.49 37.27"/>
  <rect class="cls-1" x="79.59" y="33.55" width=".6" height="4.27"/>
  <path class="cls-1" d="m82.39,37.82h-.74l1.88-4.28h.29l1.68,4.28h-.8l-.4-1.07h-1.46l-.44,1.07Zm1.2-2.89l-.53,1.27h1.03l-.49-1.27Z"/>
</svg>